G75*
%MOIN*%
%OFA0B0*%
%FSLAX25Y25*%
%IPPOS*%
%LPD*%
%AMOC8*
5,1,8,0,0,1.08239X$1,22.5*
%
%ADD10C,0.06000*%
%ADD11R,0.05000X0.05000*%
%ADD12C,0.01000*%
%ADD13C,0.03762*%
D10*
X0007894Y0018106D02*
X0007894Y0024106D01*
X0017894Y0024106D02*
X0017894Y0018106D01*
X0027894Y0018106D02*
X0027894Y0024106D01*
X0037894Y0024106D02*
X0037894Y0018106D01*
X0050394Y0018106D02*
X0050394Y0024106D01*
X0060394Y0024106D02*
X0060394Y0018106D01*
X0070394Y0018106D02*
X0070394Y0024106D01*
X0080394Y0024106D02*
X0080394Y0018106D01*
D11*
X0030394Y0044856D03*
X0020394Y0044856D03*
X0010394Y0044856D03*
X0010394Y0054856D03*
X0020394Y0054856D03*
X0030394Y0054856D03*
D12*
X0002944Y0048090D02*
X0002944Y0009906D01*
X0085344Y0009906D01*
X0085344Y0091017D01*
X0002944Y0091017D01*
X0002944Y0051622D01*
X0003705Y0052383D01*
X0003794Y0052420D01*
X0003794Y0055519D01*
X0004731Y0056456D01*
X0006794Y0056456D01*
X0006794Y0057812D01*
X0007438Y0058456D01*
X0013350Y0058456D01*
X0013994Y0057812D01*
X0013994Y0055719D01*
X0014731Y0056456D01*
X0016794Y0056456D01*
X0016794Y0057812D01*
X0017438Y0058456D01*
X0023350Y0058456D01*
X0023994Y0057812D01*
X0023994Y0052503D01*
X0024801Y0052837D01*
X0025987Y0052837D01*
X0026794Y0052503D01*
X0026794Y0057812D01*
X0027438Y0058456D01*
X0033350Y0058456D01*
X0033994Y0057812D01*
X0033994Y0051900D01*
X0033350Y0051256D01*
X0031994Y0051256D01*
X0031994Y0049193D01*
X0031657Y0048856D01*
X0033092Y0048856D01*
X0033473Y0048754D01*
X0033815Y0048556D01*
X0034094Y0048277D01*
X0034292Y0047935D01*
X0034394Y0047553D01*
X0034394Y0045356D01*
X0030894Y0045356D01*
X0030894Y0044356D01*
X0030894Y0040856D01*
X0033092Y0040856D01*
X0033473Y0040958D01*
X0033815Y0041156D01*
X0034094Y0041435D01*
X0034292Y0041777D01*
X0034394Y0042158D01*
X0034394Y0044356D01*
X0030894Y0044356D01*
X0029894Y0044356D01*
X0026394Y0044356D01*
X0026394Y0042158D01*
X0026496Y0041777D01*
X0026694Y0041435D01*
X0026973Y0041156D01*
X0027315Y0040958D01*
X0027697Y0040856D01*
X0029894Y0040856D01*
X0029894Y0044356D01*
X0029894Y0045356D01*
X0026394Y0045356D01*
X0026394Y0047043D01*
X0025987Y0046875D01*
X0024801Y0046875D01*
X0023994Y0047209D01*
X0023994Y0041900D01*
X0023350Y0041256D01*
X0019494Y0041256D01*
X0019494Y0027881D01*
X0020217Y0027582D01*
X0021370Y0026428D01*
X0021994Y0024921D01*
X0021994Y0017290D01*
X0021370Y0015783D01*
X0020217Y0014630D01*
X0018710Y0014006D01*
X0017079Y0014006D01*
X0015572Y0014630D01*
X0014494Y0015708D01*
X0014494Y0013956D01*
X0026294Y0013956D01*
X0026294Y0014331D01*
X0025572Y0014630D01*
X0024418Y0015783D01*
X0023794Y0017290D01*
X0023794Y0024921D01*
X0024418Y0026428D01*
X0025572Y0027582D01*
X0026294Y0027881D01*
X0026294Y0029269D01*
X0027231Y0030206D01*
X0046294Y0030206D01*
X0046294Y0034269D01*
X0047231Y0035206D01*
X0047830Y0035206D01*
X0047867Y0035295D01*
X0048705Y0036133D01*
X0049801Y0036587D01*
X0050987Y0036587D01*
X0052083Y0036133D01*
X0052921Y0035295D01*
X0053375Y0034199D01*
X0053375Y0033013D01*
X0052921Y0031917D01*
X0052083Y0031079D01*
X0050987Y0030625D01*
X0049801Y0030625D01*
X0049494Y0030752D01*
X0049494Y0030206D01*
X0071057Y0030206D01*
X0071994Y0029269D01*
X0071994Y0027881D01*
X0072717Y0027582D01*
X0073870Y0026428D01*
X0074494Y0024921D01*
X0074494Y0017290D01*
X0073870Y0015783D01*
X0072717Y0014630D01*
X0071210Y0014006D01*
X0069579Y0014006D01*
X0068072Y0014630D01*
X0066918Y0015783D01*
X0066294Y0017290D01*
X0066294Y0024921D01*
X0066918Y0026428D01*
X0067496Y0027006D01*
X0063292Y0027006D01*
X0063870Y0026428D01*
X0064494Y0024921D01*
X0064494Y0017290D01*
X0063870Y0015783D01*
X0062717Y0014630D01*
X0061210Y0014006D01*
X0059579Y0014006D01*
X0058072Y0014630D01*
X0056918Y0015783D01*
X0056294Y0017290D01*
X0056294Y0024921D01*
X0056918Y0026428D01*
X0057496Y0027006D01*
X0053849Y0027006D01*
X0054243Y0026464D01*
X0054564Y0025833D01*
X0054783Y0025160D01*
X0054894Y0024460D01*
X0054894Y0021606D01*
X0050894Y0021606D01*
X0050894Y0020606D01*
X0054894Y0020606D01*
X0054894Y0017752D01*
X0054783Y0017052D01*
X0054564Y0016378D01*
X0054243Y0015747D01*
X0053826Y0015174D01*
X0053326Y0014673D01*
X0052753Y0014257D01*
X0052161Y0013956D01*
X0078794Y0013956D01*
X0078794Y0014331D01*
X0078072Y0014630D01*
X0076918Y0015783D01*
X0076294Y0017290D01*
X0076294Y0024921D01*
X0076918Y0026428D01*
X0078072Y0027582D01*
X0079579Y0028206D01*
X0081210Y0028206D01*
X0082717Y0027582D01*
X0083870Y0026428D01*
X0084494Y0024921D01*
X0084494Y0017290D01*
X0083870Y0015783D01*
X0082717Y0014630D01*
X0081994Y0014331D01*
X0081994Y0011693D01*
X0081057Y0010756D01*
X0037231Y0010756D01*
X0036294Y0011693D01*
X0036294Y0014331D01*
X0035572Y0014630D01*
X0034418Y0015783D01*
X0033794Y0017290D01*
X0033794Y0024921D01*
X0034418Y0026428D01*
X0034996Y0027006D01*
X0030792Y0027006D01*
X0031370Y0026428D01*
X0031994Y0024921D01*
X0031994Y0017290D01*
X0031370Y0015783D01*
X0030217Y0014630D01*
X0029494Y0014331D01*
X0029494Y0011693D01*
X0028557Y0010756D01*
X0012231Y0010756D01*
X0011294Y0011693D01*
X0011294Y0015142D01*
X0010826Y0014673D01*
X0010253Y0014257D01*
X0009621Y0013936D01*
X0008948Y0013717D01*
X0008394Y0013629D01*
X0008394Y0020606D01*
X0007394Y0020606D01*
X0003394Y0020606D01*
X0003394Y0017752D01*
X0003505Y0017052D01*
X0003724Y0016378D01*
X0004045Y0015747D01*
X0004462Y0015174D01*
X0004963Y0014673D01*
X0005536Y0014257D01*
X0006167Y0013936D01*
X0006840Y0013717D01*
X0007394Y0013629D01*
X0007394Y0020606D01*
X0007394Y0021606D01*
X0007394Y0028583D01*
X0006840Y0028495D01*
X0006167Y0028276D01*
X0005536Y0027955D01*
X0004963Y0027538D01*
X0004462Y0027037D01*
X0004045Y0026464D01*
X0003724Y0025833D01*
X0003505Y0025160D01*
X0003394Y0024460D01*
X0003394Y0021606D01*
X0007394Y0021606D01*
X0008394Y0021606D01*
X0008394Y0028583D01*
X0008948Y0028495D01*
X0009621Y0028276D01*
X0010253Y0027955D01*
X0010826Y0027538D01*
X0011294Y0027070D01*
X0011294Y0029506D01*
X0008481Y0029506D01*
X0007544Y0030443D01*
X0007544Y0041256D01*
X0007438Y0041256D01*
X0006794Y0041900D01*
X0006794Y0047209D01*
X0005987Y0046875D01*
X0004801Y0046875D01*
X0003705Y0047329D01*
X0002944Y0048090D01*
X0002944Y0047540D02*
X0003494Y0047540D01*
X0002944Y0046542D02*
X0006794Y0046542D01*
X0006794Y0045543D02*
X0002944Y0045543D01*
X0002944Y0044545D02*
X0006794Y0044545D01*
X0006794Y0043546D02*
X0002944Y0043546D01*
X0002944Y0042548D02*
X0006794Y0042548D01*
X0007145Y0041549D02*
X0002944Y0041549D01*
X0002944Y0040551D02*
X0007544Y0040551D01*
X0007544Y0039552D02*
X0002944Y0039552D01*
X0002944Y0038554D02*
X0007544Y0038554D01*
X0007544Y0037555D02*
X0002944Y0037555D01*
X0002944Y0036557D02*
X0007544Y0036557D01*
X0007544Y0035558D02*
X0002944Y0035558D01*
X0002944Y0034560D02*
X0007544Y0034560D01*
X0007544Y0033561D02*
X0002944Y0033561D01*
X0002944Y0032563D02*
X0007544Y0032563D01*
X0007544Y0031564D02*
X0002944Y0031564D01*
X0002944Y0030566D02*
X0007544Y0030566D01*
X0008420Y0029567D02*
X0002944Y0029567D01*
X0002944Y0028569D02*
X0007305Y0028569D01*
X0007394Y0028569D02*
X0008394Y0028569D01*
X0008483Y0028569D02*
X0011294Y0028569D01*
X0011294Y0027570D02*
X0010782Y0027570D01*
X0008394Y0027570D02*
X0007394Y0027570D01*
X0007394Y0026572D02*
X0008394Y0026572D01*
X0008394Y0025573D02*
X0007394Y0025573D01*
X0007394Y0024575D02*
X0008394Y0024575D01*
X0008394Y0023576D02*
X0007394Y0023576D01*
X0007394Y0022578D02*
X0008394Y0022578D01*
X0007394Y0021579D02*
X0002944Y0021579D01*
X0002944Y0020581D02*
X0003394Y0020581D01*
X0003394Y0019582D02*
X0002944Y0019582D01*
X0002944Y0018584D02*
X0003394Y0018584D01*
X0003420Y0017585D02*
X0002944Y0017585D01*
X0002944Y0016587D02*
X0003656Y0016587D01*
X0004161Y0015588D02*
X0002944Y0015588D01*
X0002944Y0014590D02*
X0005078Y0014590D01*
X0007394Y0014590D02*
X0008394Y0014590D01*
X0008394Y0015588D02*
X0007394Y0015588D01*
X0007394Y0016587D02*
X0008394Y0016587D01*
X0008394Y0017585D02*
X0007394Y0017585D01*
X0007394Y0018584D02*
X0008394Y0018584D01*
X0008394Y0019582D02*
X0007394Y0019582D01*
X0007394Y0020581D02*
X0008394Y0020581D01*
X0003394Y0022578D02*
X0002944Y0022578D01*
X0002944Y0023576D02*
X0003394Y0023576D01*
X0003412Y0024575D02*
X0002944Y0024575D01*
X0002944Y0025573D02*
X0003639Y0025573D01*
X0004123Y0026572D02*
X0002944Y0026572D01*
X0002944Y0027570D02*
X0005006Y0027570D01*
X0009144Y0031106D02*
X0012894Y0031106D01*
X0012894Y0012356D01*
X0027894Y0012356D01*
X0027894Y0021106D01*
X0027894Y0028606D01*
X0047894Y0028606D01*
X0047894Y0033606D01*
X0050394Y0033606D01*
X0052568Y0031564D02*
X0085344Y0031564D01*
X0085344Y0030566D02*
X0049494Y0030566D01*
X0047894Y0028606D02*
X0070394Y0028606D01*
X0070394Y0021106D01*
X0066294Y0021579D02*
X0064494Y0021579D01*
X0064494Y0020581D02*
X0066294Y0020581D01*
X0066294Y0019582D02*
X0064494Y0019582D01*
X0064494Y0018584D02*
X0066294Y0018584D01*
X0066294Y0017585D02*
X0064494Y0017585D01*
X0064203Y0016587D02*
X0066586Y0016587D01*
X0067114Y0015588D02*
X0063674Y0015588D01*
X0062619Y0014590D02*
X0068170Y0014590D01*
X0072619Y0014590D02*
X0078170Y0014590D01*
X0077114Y0015588D02*
X0073674Y0015588D01*
X0074203Y0016587D02*
X0076586Y0016587D01*
X0076294Y0017585D02*
X0074494Y0017585D01*
X0074494Y0018584D02*
X0076294Y0018584D01*
X0076294Y0019582D02*
X0074494Y0019582D01*
X0074494Y0020581D02*
X0076294Y0020581D01*
X0076294Y0021579D02*
X0074494Y0021579D01*
X0074494Y0022578D02*
X0076294Y0022578D01*
X0076294Y0023576D02*
X0074494Y0023576D01*
X0074494Y0024575D02*
X0076294Y0024575D01*
X0076564Y0025573D02*
X0074224Y0025573D01*
X0073727Y0026572D02*
X0077062Y0026572D01*
X0078060Y0027570D02*
X0072728Y0027570D01*
X0071994Y0028569D02*
X0085344Y0028569D01*
X0085344Y0029567D02*
X0071696Y0029567D01*
X0067062Y0026572D02*
X0063727Y0026572D01*
X0064224Y0025573D02*
X0066564Y0025573D01*
X0066294Y0024575D02*
X0064494Y0024575D01*
X0064494Y0023576D02*
X0066294Y0023576D01*
X0066294Y0022578D02*
X0064494Y0022578D01*
X0057062Y0026572D02*
X0054165Y0026572D01*
X0054649Y0025573D02*
X0056564Y0025573D01*
X0056294Y0024575D02*
X0054876Y0024575D01*
X0054894Y0023576D02*
X0056294Y0023576D01*
X0056294Y0022578D02*
X0054894Y0022578D01*
X0056294Y0021579D02*
X0050894Y0021579D01*
X0049894Y0021579D02*
X0041994Y0021579D01*
X0041994Y0020581D02*
X0045894Y0020581D01*
X0045894Y0020606D02*
X0045894Y0017752D01*
X0046005Y0017052D01*
X0046224Y0016378D01*
X0046545Y0015747D01*
X0046962Y0015174D01*
X0047463Y0014673D01*
X0048036Y0014257D01*
X0048627Y0013956D01*
X0039494Y0013956D01*
X0039494Y0014331D01*
X0040217Y0014630D01*
X0041370Y0015783D01*
X0041994Y0017290D01*
X0041994Y0024921D01*
X0041370Y0026428D01*
X0040792Y0027006D01*
X0046939Y0027006D01*
X0046545Y0026464D01*
X0046224Y0025833D01*
X0046005Y0025160D01*
X0045894Y0024460D01*
X0045894Y0021606D01*
X0049894Y0021606D01*
X0049894Y0020606D01*
X0045894Y0020606D01*
X0045894Y0019582D02*
X0041994Y0019582D01*
X0041994Y0018584D02*
X0045894Y0018584D01*
X0045920Y0017585D02*
X0041994Y0017585D01*
X0041703Y0016587D02*
X0046156Y0016587D01*
X0046661Y0015588D02*
X0041174Y0015588D01*
X0040119Y0014590D02*
X0047578Y0014590D01*
X0053210Y0014590D02*
X0058170Y0014590D01*
X0057114Y0015588D02*
X0054127Y0015588D01*
X0054632Y0016587D02*
X0056586Y0016587D01*
X0056294Y0017585D02*
X0054868Y0017585D01*
X0054894Y0018584D02*
X0056294Y0018584D01*
X0056294Y0019582D02*
X0054894Y0019582D01*
X0054894Y0020581D02*
X0056294Y0020581D01*
X0045894Y0022578D02*
X0041994Y0022578D01*
X0041994Y0023576D02*
X0045894Y0023576D01*
X0045912Y0024575D02*
X0041994Y0024575D01*
X0041724Y0025573D02*
X0046139Y0025573D01*
X0046623Y0026572D02*
X0041227Y0026572D01*
X0046294Y0030566D02*
X0019494Y0030566D01*
X0019494Y0031564D02*
X0046294Y0031564D01*
X0046294Y0032563D02*
X0019494Y0032563D01*
X0019494Y0033561D02*
X0046294Y0033561D01*
X0046585Y0034560D02*
X0019494Y0034560D01*
X0019494Y0035558D02*
X0048131Y0035558D01*
X0049728Y0036557D02*
X0019494Y0036557D01*
X0019494Y0037555D02*
X0085344Y0037555D01*
X0085344Y0036557D02*
X0051060Y0036557D01*
X0052658Y0035558D02*
X0085344Y0035558D01*
X0085344Y0034560D02*
X0053226Y0034560D01*
X0053375Y0033561D02*
X0085344Y0033561D01*
X0085344Y0032563D02*
X0053189Y0032563D01*
X0041644Y0032356D02*
X0030394Y0032356D01*
X0030394Y0044856D01*
X0029894Y0044545D02*
X0023994Y0044545D01*
X0023994Y0045543D02*
X0026394Y0045543D01*
X0026394Y0046542D02*
X0023994Y0046542D01*
X0023994Y0043546D02*
X0026394Y0043546D01*
X0026394Y0042548D02*
X0023994Y0042548D01*
X0023643Y0041549D02*
X0026628Y0041549D01*
X0029894Y0041549D02*
X0030894Y0041549D01*
X0030894Y0042548D02*
X0029894Y0042548D01*
X0029894Y0043546D02*
X0030894Y0043546D01*
X0030894Y0044545D02*
X0085344Y0044545D01*
X0085344Y0045543D02*
X0034394Y0045543D01*
X0034394Y0046542D02*
X0085344Y0046542D01*
X0085344Y0047540D02*
X0034394Y0047540D01*
X0033832Y0048539D02*
X0085344Y0048539D01*
X0085344Y0049537D02*
X0031994Y0049537D01*
X0031994Y0050536D02*
X0085344Y0050536D01*
X0085344Y0051534D02*
X0033628Y0051534D01*
X0033994Y0052533D02*
X0085344Y0052533D01*
X0085344Y0053531D02*
X0033994Y0053531D01*
X0033994Y0054530D02*
X0085344Y0054530D01*
X0085344Y0055528D02*
X0033994Y0055528D01*
X0033994Y0056527D02*
X0085344Y0056527D01*
X0085344Y0057526D02*
X0033994Y0057526D01*
X0030394Y0054856D02*
X0030394Y0049856D01*
X0025394Y0049856D01*
X0024067Y0052533D02*
X0023994Y0052533D01*
X0023994Y0053531D02*
X0026794Y0053531D01*
X0026794Y0052533D02*
X0026721Y0052533D01*
X0026794Y0054530D02*
X0023994Y0054530D01*
X0023994Y0055528D02*
X0026794Y0055528D01*
X0026794Y0056527D02*
X0023994Y0056527D01*
X0023994Y0057526D02*
X0026794Y0057526D01*
X0020394Y0054856D02*
X0015394Y0054856D01*
X0015394Y0049856D01*
X0017894Y0044856D02*
X0017894Y0021106D01*
X0021994Y0021579D02*
X0023794Y0021579D01*
X0023794Y0020581D02*
X0021994Y0020581D01*
X0021994Y0019582D02*
X0023794Y0019582D01*
X0023794Y0018584D02*
X0021994Y0018584D01*
X0021994Y0017585D02*
X0023794Y0017585D01*
X0024086Y0016587D02*
X0021703Y0016587D01*
X0021174Y0015588D02*
X0024614Y0015588D01*
X0025670Y0014590D02*
X0020119Y0014590D01*
X0015670Y0014590D02*
X0014494Y0014590D01*
X0014494Y0015588D02*
X0014614Y0015588D01*
X0011294Y0014590D02*
X0010710Y0014590D01*
X0011294Y0013591D02*
X0002944Y0013591D01*
X0002944Y0012593D02*
X0011294Y0012593D01*
X0011393Y0011594D02*
X0002944Y0011594D01*
X0002944Y0010595D02*
X0085344Y0010595D01*
X0085344Y0011594D02*
X0081895Y0011594D01*
X0081994Y0012593D02*
X0085344Y0012593D01*
X0085344Y0013591D02*
X0081994Y0013591D01*
X0082619Y0014590D02*
X0085344Y0014590D01*
X0085344Y0015588D02*
X0083674Y0015588D01*
X0084203Y0016587D02*
X0085344Y0016587D01*
X0085344Y0017585D02*
X0084494Y0017585D01*
X0084494Y0018584D02*
X0085344Y0018584D01*
X0085344Y0019582D02*
X0084494Y0019582D01*
X0084494Y0020581D02*
X0085344Y0020581D01*
X0085344Y0021579D02*
X0084494Y0021579D01*
X0084494Y0022578D02*
X0085344Y0022578D01*
X0085344Y0023576D02*
X0084494Y0023576D01*
X0084494Y0024575D02*
X0085344Y0024575D01*
X0085344Y0025573D02*
X0084224Y0025573D01*
X0083727Y0026572D02*
X0085344Y0026572D01*
X0085344Y0027570D02*
X0082728Y0027570D01*
X0080394Y0021106D02*
X0080394Y0012356D01*
X0037894Y0012356D01*
X0037894Y0021106D01*
X0033794Y0021579D02*
X0031994Y0021579D01*
X0031994Y0020581D02*
X0033794Y0020581D01*
X0033794Y0019582D02*
X0031994Y0019582D01*
X0031994Y0018584D02*
X0033794Y0018584D01*
X0033794Y0017585D02*
X0031994Y0017585D01*
X0031703Y0016587D02*
X0034086Y0016587D01*
X0034614Y0015588D02*
X0031174Y0015588D01*
X0030119Y0014590D02*
X0035670Y0014590D01*
X0036294Y0013591D02*
X0029494Y0013591D01*
X0029494Y0012593D02*
X0036294Y0012593D01*
X0036393Y0011594D02*
X0029395Y0011594D01*
X0031994Y0022578D02*
X0033794Y0022578D01*
X0033794Y0023576D02*
X0031994Y0023576D01*
X0031994Y0024575D02*
X0033794Y0024575D01*
X0034064Y0025573D02*
X0031724Y0025573D01*
X0031227Y0026572D02*
X0034562Y0026572D01*
X0026593Y0029567D02*
X0019494Y0029567D01*
X0019494Y0028569D02*
X0026294Y0028569D01*
X0025560Y0027570D02*
X0020228Y0027570D01*
X0021227Y0026572D02*
X0024562Y0026572D01*
X0024064Y0025573D02*
X0021724Y0025573D01*
X0021994Y0024575D02*
X0023794Y0024575D01*
X0023794Y0023576D02*
X0021994Y0023576D01*
X0021994Y0022578D02*
X0023794Y0022578D01*
X0009144Y0031106D02*
X0009144Y0044856D01*
X0010394Y0044856D01*
X0005394Y0049856D02*
X0005394Y0054856D01*
X0010394Y0054856D01*
X0006794Y0056527D02*
X0002944Y0056527D01*
X0002944Y0055528D02*
X0003804Y0055528D01*
X0003794Y0054530D02*
X0002944Y0054530D01*
X0002944Y0053531D02*
X0003794Y0053531D01*
X0003794Y0052533D02*
X0002944Y0052533D01*
X0002944Y0057526D02*
X0006794Y0057526D01*
X0002944Y0058524D02*
X0085344Y0058524D01*
X0085344Y0059523D02*
X0002944Y0059523D01*
X0002944Y0060521D02*
X0085344Y0060521D01*
X0085344Y0061520D02*
X0002944Y0061520D01*
X0002944Y0062518D02*
X0085344Y0062518D01*
X0085344Y0063517D02*
X0002944Y0063517D01*
X0002944Y0064515D02*
X0085344Y0064515D01*
X0085344Y0065514D02*
X0002944Y0065514D01*
X0002944Y0066512D02*
X0085344Y0066512D01*
X0085344Y0067511D02*
X0044765Y0067511D01*
X0044583Y0067329D02*
X0045421Y0068167D01*
X0045458Y0068256D01*
X0078557Y0068256D01*
X0079494Y0069193D01*
X0079494Y0076042D01*
X0079583Y0076079D01*
X0080421Y0076917D01*
X0080875Y0078013D01*
X0080875Y0079199D01*
X0080421Y0080295D01*
X0079583Y0081133D01*
X0078487Y0081587D01*
X0077301Y0081587D01*
X0076205Y0081133D01*
X0075367Y0080295D01*
X0074913Y0079199D01*
X0074913Y0078013D01*
X0075367Y0076917D01*
X0076205Y0076079D01*
X0076294Y0076042D01*
X0076294Y0071456D01*
X0045458Y0071456D01*
X0045421Y0071545D01*
X0044583Y0072383D01*
X0043487Y0072837D01*
X0042301Y0072837D01*
X0041205Y0072383D01*
X0040367Y0071545D01*
X0039913Y0070449D01*
X0039913Y0069263D01*
X0040367Y0068167D01*
X0041205Y0067329D01*
X0042301Y0066875D01*
X0043487Y0066875D01*
X0044583Y0067329D01*
X0042894Y0069856D02*
X0077894Y0069856D01*
X0077894Y0078606D01*
X0075127Y0077496D02*
X0002944Y0077496D01*
X0002944Y0078494D02*
X0074913Y0078494D01*
X0075035Y0079493D02*
X0002944Y0079493D01*
X0002944Y0080491D02*
X0075564Y0080491D01*
X0077066Y0081490D02*
X0002944Y0081490D01*
X0002944Y0082488D02*
X0085344Y0082488D01*
X0085344Y0083487D02*
X0002944Y0083487D01*
X0002944Y0084485D02*
X0085344Y0084485D01*
X0085344Y0085484D02*
X0002944Y0085484D01*
X0002944Y0086482D02*
X0085344Y0086482D01*
X0085344Y0087481D02*
X0002944Y0087481D01*
X0002944Y0088479D02*
X0085344Y0088479D01*
X0085344Y0089478D02*
X0002944Y0089478D01*
X0002944Y0090476D02*
X0085344Y0090476D01*
X0085344Y0081490D02*
X0078722Y0081490D01*
X0080225Y0080491D02*
X0085344Y0080491D01*
X0085344Y0079493D02*
X0080753Y0079493D01*
X0080875Y0078494D02*
X0085344Y0078494D01*
X0085344Y0077496D02*
X0080661Y0077496D01*
X0080001Y0076497D02*
X0085344Y0076497D01*
X0085344Y0075499D02*
X0079494Y0075499D01*
X0079494Y0074500D02*
X0085344Y0074500D01*
X0085344Y0073502D02*
X0079494Y0073502D01*
X0079494Y0072503D02*
X0085344Y0072503D01*
X0085344Y0071505D02*
X0079494Y0071505D01*
X0079494Y0070506D02*
X0085344Y0070506D01*
X0085344Y0069508D02*
X0079494Y0069508D01*
X0078810Y0068509D02*
X0085344Y0068509D01*
X0076294Y0071505D02*
X0045438Y0071505D01*
X0044293Y0072503D02*
X0076294Y0072503D01*
X0076294Y0073502D02*
X0002944Y0073502D01*
X0002944Y0074500D02*
X0076294Y0074500D01*
X0076294Y0075499D02*
X0002944Y0075499D01*
X0002944Y0076497D02*
X0075787Y0076497D01*
X0041495Y0072503D02*
X0002944Y0072503D01*
X0002944Y0071505D02*
X0040350Y0071505D01*
X0039937Y0070506D02*
X0002944Y0070506D01*
X0002944Y0069508D02*
X0039913Y0069508D01*
X0040225Y0068509D02*
X0002944Y0068509D01*
X0002944Y0067511D02*
X0041023Y0067511D01*
X0016794Y0057526D02*
X0013994Y0057526D01*
X0013994Y0056527D02*
X0016794Y0056527D01*
X0017894Y0044856D02*
X0020394Y0044856D01*
X0019494Y0040551D02*
X0085344Y0040551D01*
X0085344Y0041549D02*
X0034160Y0041549D01*
X0034394Y0042548D02*
X0085344Y0042548D01*
X0085344Y0043546D02*
X0034394Y0043546D01*
X0019494Y0039552D02*
X0085344Y0039552D01*
X0085344Y0038554D02*
X0019494Y0038554D01*
D13*
X0015394Y0049856D03*
X0005394Y0049856D03*
X0025394Y0049856D03*
X0041644Y0032356D03*
X0050394Y0033606D03*
X0072894Y0046106D03*
X0051644Y0056106D03*
X0042894Y0069856D03*
X0011644Y0077356D03*
X0077894Y0078606D03*
M02*
