G75*
%MOIN*%
%OFA0B0*%
%FSLAX25Y25*%
%IPPOS*%
%LPD*%
%AMOC8*
5,1,8,0,0,1.08239X$1,22.5*
%
%ADD10C,0.00000*%
%ADD11R,0.04331X0.03937*%
%ADD12R,0.03937X0.04331*%
%ADD13R,0.03543X0.04724*%
%ADD14R,0.02200X0.07800*%
%ADD15R,0.05512X0.07480*%
%ADD16R,0.02362X0.04724*%
%ADD17R,0.08268X0.07874*%
%ADD18R,0.06299X0.07480*%
%ADD19R,0.01575X0.05315*%
%ADD20C,0.06000*%
%ADD21C,0.01000*%
%ADD22C,0.03762*%
%ADD23C,0.01200*%
D10*
X0001644Y0008606D02*
X0001644Y0092317D01*
X0086644Y0092317D01*
X0086644Y0008606D01*
X0001644Y0008606D01*
D11*
X0043298Y0051106D03*
X0049991Y0051106D03*
X0074548Y0051106D03*
X0081241Y0051106D03*
X0081241Y0061106D03*
X0074548Y0061106D03*
D12*
X0066241Y0064856D03*
X0059548Y0064856D03*
X0049991Y0061106D03*
X0043298Y0061106D03*
X0059548Y0054856D03*
X0066241Y0054856D03*
X0074548Y0041106D03*
X0081241Y0041106D03*
X0049991Y0041106D03*
X0043298Y0041106D03*
X0025394Y0067759D03*
X0025394Y0074452D03*
X0025394Y0081509D03*
X0025394Y0088202D03*
D13*
X0059154Y0045830D03*
X0066634Y0045830D03*
X0062894Y0036381D03*
D14*
X0036644Y0038906D03*
X0031644Y0038906D03*
X0026644Y0038906D03*
X0021644Y0038906D03*
X0016644Y0038906D03*
X0011644Y0038906D03*
X0006644Y0038906D03*
X0006644Y0058306D03*
X0011644Y0058306D03*
X0016644Y0058306D03*
X0021644Y0058306D03*
X0026644Y0058306D03*
X0031644Y0058306D03*
X0036644Y0058306D03*
D15*
X0016369Y0069944D03*
X0006920Y0069944D03*
X0006920Y0087267D03*
X0016369Y0087267D03*
D16*
X0074154Y0081883D03*
X0081634Y0081883D03*
X0081634Y0072828D03*
X0077894Y0072828D03*
X0074154Y0072828D03*
D17*
X0062599Y0076854D03*
X0038189Y0076854D03*
D18*
X0034252Y0086106D03*
X0066536Y0086106D03*
D19*
X0055512Y0075574D03*
X0052953Y0075574D03*
X0050394Y0075574D03*
X0047835Y0075574D03*
X0045276Y0075574D03*
D20*
X0050394Y0024106D02*
X0050394Y0018106D01*
X0060394Y0018106D02*
X0060394Y0024106D01*
X0070394Y0024106D02*
X0070394Y0018106D01*
X0080394Y0018106D02*
X0080394Y0024106D01*
X0037894Y0024106D02*
X0037894Y0018106D01*
X0027894Y0018106D02*
X0027894Y0024106D01*
X0017894Y0024106D02*
X0017894Y0018106D01*
X0007894Y0018106D02*
X0007894Y0024106D01*
D21*
X0007394Y0024575D02*
X0008394Y0024575D01*
X0008394Y0025573D02*
X0007394Y0025573D01*
X0007394Y0026572D02*
X0008394Y0026572D01*
X0008394Y0027570D02*
X0007394Y0027570D01*
X0007394Y0028569D02*
X0008394Y0028569D01*
X0008394Y0028583D02*
X0008394Y0021606D01*
X0007394Y0021606D01*
X0007394Y0028583D01*
X0006840Y0028495D01*
X0006167Y0028276D01*
X0005536Y0027955D01*
X0004963Y0027538D01*
X0004462Y0027037D01*
X0004045Y0026464D01*
X0003724Y0025833D01*
X0003505Y0025160D01*
X0003394Y0024460D01*
X0003394Y0021606D01*
X0007394Y0021606D01*
X0007394Y0020606D01*
X0003394Y0020606D01*
X0003394Y0017752D01*
X0003505Y0017052D01*
X0003724Y0016378D01*
X0004045Y0015747D01*
X0004462Y0015174D01*
X0004963Y0014673D01*
X0005536Y0014257D01*
X0006167Y0013936D01*
X0006840Y0013717D01*
X0007394Y0013629D01*
X0007394Y0020606D01*
X0008394Y0020606D01*
X0008394Y0021606D01*
X0012394Y0021606D01*
X0012394Y0024460D01*
X0012283Y0025160D01*
X0012064Y0025833D01*
X0011743Y0026464D01*
X0011326Y0027037D01*
X0010826Y0027538D01*
X0010253Y0027955D01*
X0009621Y0028276D01*
X0008948Y0028495D01*
X0008394Y0028583D01*
X0008483Y0028569D02*
X0016194Y0028569D01*
X0016194Y0027840D02*
X0015572Y0027582D01*
X0014418Y0026428D01*
X0013794Y0024921D01*
X0013794Y0017290D01*
X0014418Y0015783D01*
X0015572Y0014630D01*
X0017079Y0014006D01*
X0018710Y0014006D01*
X0020217Y0014630D01*
X0021370Y0015783D01*
X0021994Y0017290D01*
X0021994Y0024921D01*
X0021370Y0026428D01*
X0020217Y0027582D01*
X0019594Y0027840D01*
X0019594Y0033060D01*
X0018598Y0034056D01*
X0018350Y0034056D01*
X0018844Y0034550D01*
X0018844Y0043256D01*
X0019444Y0043256D01*
X0019444Y0034550D01*
X0020088Y0033906D01*
X0023200Y0033906D01*
X0023844Y0034550D01*
X0023844Y0043256D01*
X0024444Y0043256D01*
X0024444Y0034550D01*
X0025044Y0033950D01*
X0025044Y0027943D01*
X0025489Y0027499D01*
X0024418Y0026428D01*
X0023794Y0024921D01*
X0023794Y0017290D01*
X0024418Y0015783D01*
X0025572Y0014630D01*
X0027079Y0014006D01*
X0028710Y0014006D01*
X0030217Y0014630D01*
X0031370Y0015783D01*
X0031994Y0017290D01*
X0031994Y0024921D01*
X0031370Y0026428D01*
X0030792Y0027006D01*
X0034996Y0027006D01*
X0034418Y0026428D01*
X0033794Y0024921D01*
X0033794Y0017290D01*
X0034418Y0015783D01*
X0035572Y0014630D01*
X0037079Y0014006D01*
X0038710Y0014006D01*
X0040217Y0014630D01*
X0041370Y0015783D01*
X0041994Y0017290D01*
X0041994Y0024921D01*
X0041370Y0026428D01*
X0040792Y0027006D01*
X0046939Y0027006D01*
X0046545Y0026464D01*
X0046224Y0025833D01*
X0046005Y0025160D01*
X0045894Y0024460D01*
X0045894Y0021606D01*
X0049894Y0021606D01*
X0049894Y0020606D01*
X0045894Y0020606D01*
X0045894Y0017752D01*
X0046005Y0017052D01*
X0046224Y0016378D01*
X0046545Y0015747D01*
X0046962Y0015174D01*
X0047463Y0014673D01*
X0048036Y0014257D01*
X0048667Y0013936D01*
X0049340Y0013717D01*
X0049894Y0013629D01*
X0049894Y0020606D01*
X0050894Y0020606D01*
X0050894Y0021606D01*
X0054894Y0021606D01*
X0054894Y0024460D01*
X0054783Y0025160D01*
X0054564Y0025833D01*
X0054243Y0026464D01*
X0053849Y0027006D01*
X0057496Y0027006D01*
X0056918Y0026428D01*
X0056294Y0024921D01*
X0056294Y0017290D01*
X0056918Y0015783D01*
X0058072Y0014630D01*
X0058794Y0014331D01*
X0058794Y0011693D01*
X0059731Y0010756D01*
X0076057Y0010756D01*
X0076994Y0011693D01*
X0076994Y0015708D01*
X0078072Y0014630D01*
X0079579Y0014006D01*
X0081210Y0014006D01*
X0082717Y0014630D01*
X0083870Y0015783D01*
X0084494Y0017290D01*
X0084494Y0024921D01*
X0083870Y0026428D01*
X0082717Y0027582D01*
X0081994Y0027881D01*
X0081994Y0037841D01*
X0083665Y0037841D01*
X0084309Y0038485D01*
X0084309Y0043727D01*
X0083665Y0044371D01*
X0082841Y0044371D01*
X0082841Y0048037D01*
X0083862Y0048037D01*
X0084506Y0048682D01*
X0084506Y0053530D01*
X0083862Y0054174D01*
X0082841Y0054174D01*
X0082841Y0056769D01*
X0081903Y0057706D01*
X0079494Y0057706D01*
X0079494Y0058037D01*
X0083862Y0058037D01*
X0084506Y0058682D01*
X0084506Y0059506D01*
X0084807Y0059506D01*
X0085344Y0060043D01*
X0085344Y0009906D01*
X0002944Y0009906D01*
X0002944Y0048090D01*
X0003705Y0047329D01*
X0003794Y0047292D01*
X0003794Y0038926D01*
X0003788Y0038272D01*
X0003794Y0038265D01*
X0003794Y0038256D01*
X0004257Y0037793D01*
X0004444Y0037602D01*
X0004444Y0034550D01*
X0005088Y0033906D01*
X0007444Y0033906D01*
X0007444Y0031652D01*
X0008440Y0030656D01*
X0016194Y0030656D01*
X0016194Y0027840D01*
X0015560Y0027570D02*
X0010782Y0027570D01*
X0011665Y0026572D02*
X0014562Y0026572D01*
X0014064Y0025573D02*
X0012149Y0025573D01*
X0012376Y0024575D02*
X0013794Y0024575D01*
X0013794Y0023576D02*
X0012394Y0023576D01*
X0012394Y0022578D02*
X0013794Y0022578D01*
X0013794Y0021579D02*
X0008394Y0021579D01*
X0008394Y0020606D02*
X0012394Y0020606D01*
X0012394Y0017752D01*
X0012283Y0017052D01*
X0012064Y0016378D01*
X0011743Y0015747D01*
X0011326Y0015174D01*
X0010826Y0014673D01*
X0010253Y0014257D01*
X0009621Y0013936D01*
X0008948Y0013717D01*
X0008394Y0013629D01*
X0008394Y0020606D01*
X0008394Y0020581D02*
X0007394Y0020581D01*
X0007394Y0021579D02*
X0002944Y0021579D01*
X0002944Y0020581D02*
X0003394Y0020581D01*
X0003394Y0019582D02*
X0002944Y0019582D01*
X0002944Y0018584D02*
X0003394Y0018584D01*
X0003420Y0017585D02*
X0002944Y0017585D01*
X0002944Y0016587D02*
X0003656Y0016587D01*
X0004161Y0015588D02*
X0002944Y0015588D01*
X0002944Y0014590D02*
X0005078Y0014590D01*
X0007394Y0014590D02*
X0008394Y0014590D01*
X0008394Y0015588D02*
X0007394Y0015588D01*
X0007394Y0016587D02*
X0008394Y0016587D01*
X0008394Y0017585D02*
X0007394Y0017585D01*
X0007394Y0018584D02*
X0008394Y0018584D01*
X0008394Y0019582D02*
X0007394Y0019582D01*
X0007394Y0022578D02*
X0008394Y0022578D01*
X0008394Y0023576D02*
X0007394Y0023576D01*
X0003394Y0023576D02*
X0002944Y0023576D01*
X0002944Y0024575D02*
X0003412Y0024575D01*
X0003639Y0025573D02*
X0002944Y0025573D01*
X0002944Y0026572D02*
X0004123Y0026572D01*
X0005006Y0027570D02*
X0002944Y0027570D01*
X0002944Y0028569D02*
X0007305Y0028569D01*
X0007532Y0031564D02*
X0002944Y0031564D01*
X0002944Y0030566D02*
X0016194Y0030566D01*
X0016194Y0029567D02*
X0002944Y0029567D01*
X0002944Y0032563D02*
X0007444Y0032563D01*
X0007444Y0033561D02*
X0002944Y0033561D01*
X0002944Y0034560D02*
X0004444Y0034560D01*
X0004444Y0035558D02*
X0002944Y0035558D01*
X0002944Y0036557D02*
X0004444Y0036557D01*
X0004444Y0037555D02*
X0002944Y0037555D01*
X0002944Y0038554D02*
X0003790Y0038554D01*
X0003794Y0039552D02*
X0002944Y0039552D01*
X0002944Y0040551D02*
X0003794Y0040551D01*
X0003794Y0041549D02*
X0002944Y0041549D01*
X0002944Y0042548D02*
X0003794Y0042548D01*
X0003794Y0043546D02*
X0002944Y0043546D01*
X0002944Y0044545D02*
X0003794Y0044545D01*
X0003794Y0045543D02*
X0002944Y0045543D01*
X0002944Y0046542D02*
X0003794Y0046542D01*
X0003494Y0047540D02*
X0002944Y0047540D01*
X0005394Y0049856D02*
X0005394Y0038918D01*
X0006644Y0038906D01*
X0011644Y0038906D02*
X0011644Y0049856D01*
X0015394Y0049856D01*
X0019144Y0046606D02*
X0019144Y0058306D01*
X0016644Y0058306D01*
X0018844Y0059906D02*
X0018844Y0062662D01*
X0018200Y0063306D01*
X0015088Y0063306D01*
X0014444Y0062662D01*
X0014444Y0060006D01*
X0013844Y0060006D01*
X0013844Y0062662D01*
X0013200Y0063306D01*
X0010088Y0063306D01*
X0009444Y0062662D01*
X0009444Y0060006D01*
X0008844Y0060006D01*
X0008844Y0062662D01*
X0008200Y0063306D01*
X0005088Y0063306D01*
X0004444Y0062662D01*
X0004444Y0053950D01*
X0005088Y0053306D01*
X0007444Y0053306D01*
X0007444Y0052022D01*
X0007083Y0052383D01*
X0005987Y0052837D01*
X0004801Y0052837D01*
X0003705Y0052383D01*
X0002944Y0051622D01*
X0002944Y0091017D01*
X0003064Y0091017D01*
X0003064Y0083072D01*
X0003708Y0082427D01*
X0005220Y0082427D01*
X0005220Y0080402D01*
X0006216Y0079406D01*
X0021926Y0079406D01*
X0021926Y0079147D01*
X0022028Y0078765D01*
X0022225Y0078423D01*
X0022505Y0078144D01*
X0022787Y0077981D01*
X0022505Y0077818D01*
X0022225Y0077539D01*
X0022028Y0077197D01*
X0021926Y0076815D01*
X0021926Y0074937D01*
X0024910Y0074937D01*
X0024910Y0078118D01*
X0024910Y0081025D01*
X0025878Y0081025D01*
X0025878Y0074937D01*
X0024910Y0074937D01*
X0024910Y0073968D01*
X0021926Y0073968D01*
X0021926Y0072090D01*
X0022028Y0071708D01*
X0022225Y0071366D01*
X0022505Y0071087D01*
X0022839Y0070894D01*
X0022326Y0070380D01*
X0022326Y0069056D01*
X0020224Y0069056D01*
X0020224Y0074140D01*
X0019580Y0074785D01*
X0013157Y0074785D01*
X0012513Y0074140D01*
X0012513Y0065749D01*
X0013157Y0065104D01*
X0019580Y0065104D01*
X0020132Y0065656D01*
X0022326Y0065656D01*
X0022326Y0065138D01*
X0022970Y0064494D01*
X0024944Y0064494D01*
X0024944Y0063162D01*
X0024444Y0062662D01*
X0024444Y0053950D01*
X0025088Y0053306D01*
X0028200Y0053306D01*
X0028844Y0053950D01*
X0028844Y0062662D01*
X0028344Y0063162D01*
X0028344Y0065020D01*
X0028463Y0065138D01*
X0028463Y0069406D01*
X0029944Y0069406D01*
X0029944Y0063162D01*
X0029444Y0062662D01*
X0029444Y0053950D01*
X0030088Y0053306D01*
X0032544Y0053306D01*
X0032544Y0048206D01*
X0027937Y0048206D01*
X0028375Y0049263D01*
X0028375Y0050449D01*
X0027921Y0051545D01*
X0027083Y0052383D01*
X0025987Y0052837D01*
X0024801Y0052837D01*
X0023705Y0052383D01*
X0023244Y0051922D01*
X0023244Y0053350D01*
X0023844Y0053950D01*
X0023844Y0062662D01*
X0023200Y0063306D01*
X0020088Y0063306D01*
X0019444Y0062662D01*
X0019444Y0059906D01*
X0018844Y0059906D01*
X0018844Y0060521D02*
X0019444Y0060521D01*
X0019444Y0061520D02*
X0018844Y0061520D01*
X0018844Y0062518D02*
X0019444Y0062518D01*
X0019989Y0065514D02*
X0022326Y0065514D01*
X0022949Y0064515D02*
X0002944Y0064515D01*
X0003708Y0065104D02*
X0010131Y0065104D01*
X0010776Y0065749D01*
X0010776Y0074140D01*
X0010131Y0074785D01*
X0003708Y0074785D01*
X0003064Y0074140D01*
X0003064Y0065749D01*
X0003708Y0065104D01*
X0003299Y0065514D02*
X0002944Y0065514D01*
X0002944Y0066512D02*
X0003064Y0066512D01*
X0003064Y0067511D02*
X0002944Y0067511D01*
X0002944Y0068509D02*
X0003064Y0068509D01*
X0003064Y0069508D02*
X0002944Y0069508D01*
X0002944Y0070506D02*
X0003064Y0070506D01*
X0003064Y0071505D02*
X0002944Y0071505D01*
X0002944Y0072503D02*
X0003064Y0072503D01*
X0003064Y0073502D02*
X0002944Y0073502D01*
X0002944Y0074500D02*
X0003424Y0074500D01*
X0002944Y0075499D02*
X0021926Y0075499D01*
X0021926Y0076497D02*
X0002944Y0076497D01*
X0002944Y0077496D02*
X0022200Y0077496D01*
X0022184Y0078494D02*
X0002944Y0078494D01*
X0002944Y0079493D02*
X0006129Y0079493D01*
X0005220Y0080491D02*
X0002944Y0080491D01*
X0002944Y0081490D02*
X0005220Y0081490D01*
X0003647Y0082488D02*
X0002944Y0082488D01*
X0002944Y0083487D02*
X0003064Y0083487D01*
X0003064Y0084485D02*
X0002944Y0084485D01*
X0002944Y0085484D02*
X0003064Y0085484D01*
X0003064Y0086482D02*
X0002944Y0086482D01*
X0002944Y0087481D02*
X0003064Y0087481D01*
X0003064Y0088479D02*
X0002944Y0088479D01*
X0002944Y0089478D02*
X0003064Y0089478D01*
X0003064Y0090476D02*
X0002944Y0090476D01*
X0010416Y0074500D02*
X0012873Y0074500D01*
X0012513Y0073502D02*
X0010776Y0073502D01*
X0010776Y0072503D02*
X0012513Y0072503D01*
X0012513Y0071505D02*
X0010776Y0071505D01*
X0010776Y0070506D02*
X0012513Y0070506D01*
X0012513Y0069508D02*
X0010776Y0069508D01*
X0010776Y0068509D02*
X0012513Y0068509D01*
X0012513Y0067511D02*
X0010776Y0067511D01*
X0010776Y0066512D02*
X0012513Y0066512D01*
X0012748Y0065514D02*
X0010541Y0065514D01*
X0009444Y0062518D02*
X0008844Y0062518D01*
X0008844Y0061520D02*
X0009444Y0061520D01*
X0009444Y0060521D02*
X0008844Y0060521D01*
X0013844Y0060521D02*
X0014444Y0060521D01*
X0014444Y0061520D02*
X0013844Y0061520D01*
X0013844Y0062518D02*
X0014444Y0062518D01*
X0021644Y0058306D02*
X0021644Y0049856D01*
X0025394Y0049856D01*
X0028075Y0048539D02*
X0032544Y0048539D01*
X0032544Y0049537D02*
X0028375Y0049537D01*
X0028339Y0050536D02*
X0032544Y0050536D01*
X0032544Y0051534D02*
X0027926Y0051534D01*
X0026721Y0052533D02*
X0032544Y0052533D01*
X0029863Y0053531D02*
X0028425Y0053531D01*
X0028844Y0054530D02*
X0029444Y0054530D01*
X0029444Y0055528D02*
X0028844Y0055528D01*
X0028844Y0056527D02*
X0029444Y0056527D01*
X0029444Y0057526D02*
X0028844Y0057526D01*
X0028844Y0058524D02*
X0029444Y0058524D01*
X0029444Y0059523D02*
X0028844Y0059523D01*
X0028844Y0060521D02*
X0029444Y0060521D01*
X0029444Y0061520D02*
X0028844Y0061520D01*
X0028844Y0062518D02*
X0029444Y0062518D01*
X0029944Y0063517D02*
X0028344Y0063517D01*
X0028344Y0064515D02*
X0029944Y0064515D01*
X0029944Y0065514D02*
X0028463Y0065514D01*
X0028463Y0066512D02*
X0029944Y0066512D01*
X0029944Y0067511D02*
X0028463Y0067511D01*
X0028463Y0068509D02*
X0029944Y0068509D01*
X0034144Y0064856D02*
X0034144Y0046606D01*
X0019144Y0046606D01*
X0016644Y0044856D02*
X0016644Y0038906D01*
X0018844Y0038554D02*
X0019444Y0038554D01*
X0019444Y0039552D02*
X0018844Y0039552D01*
X0018844Y0040551D02*
X0019444Y0040551D01*
X0019444Y0041549D02*
X0018844Y0041549D01*
X0018844Y0042548D02*
X0019444Y0042548D01*
X0016644Y0044856D02*
X0040394Y0044856D01*
X0040394Y0042356D01*
X0040394Y0041106D01*
X0043298Y0041106D01*
X0040229Y0039506D02*
X0040229Y0038485D01*
X0040873Y0037841D01*
X0045044Y0037841D01*
X0045044Y0032943D01*
X0045981Y0032006D01*
X0047830Y0032006D01*
X0047867Y0031917D01*
X0048705Y0031079D01*
X0049801Y0030625D01*
X0050987Y0030625D01*
X0052083Y0031079D01*
X0052921Y0031917D01*
X0053375Y0033013D01*
X0053375Y0034199D01*
X0052921Y0035295D01*
X0052083Y0036133D01*
X0050987Y0036587D01*
X0049801Y0036587D01*
X0048705Y0036133D01*
X0048244Y0035672D01*
X0048244Y0037841D01*
X0052415Y0037841D01*
X0053059Y0038485D01*
X0053059Y0043727D01*
X0052415Y0044371D01*
X0050744Y0044371D01*
X0050744Y0045756D01*
X0056282Y0045756D01*
X0056282Y0043012D01*
X0056294Y0043001D01*
X0056294Y0030206D01*
X0028244Y0030206D01*
X0028244Y0033950D01*
X0028844Y0034550D01*
X0028844Y0043256D01*
X0029444Y0043256D01*
X0029444Y0034550D01*
X0030088Y0033906D01*
X0033200Y0033906D01*
X0033844Y0034550D01*
X0033844Y0043256D01*
X0034112Y0043256D01*
X0034044Y0043003D01*
X0034044Y0038956D01*
X0036594Y0038956D01*
X0036594Y0038856D01*
X0034044Y0038856D01*
X0034044Y0034808D01*
X0034146Y0034427D01*
X0034344Y0034085D01*
X0034623Y0033806D01*
X0034965Y0033608D01*
X0035347Y0033506D01*
X0036594Y0033506D01*
X0036594Y0038856D01*
X0036694Y0038856D01*
X0036694Y0038956D01*
X0039244Y0038956D01*
X0039244Y0039993D01*
X0039731Y0039506D01*
X0040229Y0039506D01*
X0039685Y0039552D02*
X0039244Y0039552D01*
X0039244Y0038856D02*
X0036694Y0038856D01*
X0036694Y0033506D01*
X0037942Y0033506D01*
X0038323Y0033608D01*
X0038665Y0033806D01*
X0038944Y0034085D01*
X0039142Y0034427D01*
X0039244Y0034808D01*
X0039244Y0038856D01*
X0039244Y0038554D02*
X0040229Y0038554D01*
X0039244Y0037555D02*
X0045044Y0037555D01*
X0045044Y0036557D02*
X0039244Y0036557D01*
X0039244Y0035558D02*
X0045044Y0035558D01*
X0045044Y0034560D02*
X0039177Y0034560D01*
X0038148Y0033561D02*
X0045044Y0033561D01*
X0045425Y0032563D02*
X0028244Y0032563D01*
X0028244Y0033561D02*
X0035140Y0033561D01*
X0034111Y0034560D02*
X0033844Y0034560D01*
X0033844Y0035558D02*
X0034044Y0035558D01*
X0034044Y0036557D02*
X0033844Y0036557D01*
X0033844Y0037555D02*
X0034044Y0037555D01*
X0034044Y0038554D02*
X0033844Y0038554D01*
X0033844Y0039552D02*
X0034044Y0039552D01*
X0034044Y0040551D02*
X0033844Y0040551D01*
X0033844Y0041549D02*
X0034044Y0041549D01*
X0034044Y0042548D02*
X0033844Y0042548D01*
X0029444Y0042548D02*
X0028844Y0042548D01*
X0028844Y0041549D02*
X0029444Y0041549D01*
X0029444Y0040551D02*
X0028844Y0040551D01*
X0028844Y0039552D02*
X0029444Y0039552D01*
X0029444Y0038554D02*
X0028844Y0038554D01*
X0028844Y0037555D02*
X0029444Y0037555D01*
X0029444Y0036557D02*
X0028844Y0036557D01*
X0028844Y0035558D02*
X0029444Y0035558D01*
X0029444Y0034560D02*
X0028844Y0034560D01*
X0028244Y0031564D02*
X0048220Y0031564D01*
X0046644Y0033606D02*
X0050394Y0033606D01*
X0052568Y0031564D02*
X0056294Y0031564D01*
X0056294Y0030566D02*
X0028244Y0030566D01*
X0026644Y0028606D02*
X0026644Y0038906D01*
X0024444Y0038554D02*
X0023844Y0038554D01*
X0023844Y0039552D02*
X0024444Y0039552D01*
X0024444Y0040551D02*
X0023844Y0040551D01*
X0023844Y0041549D02*
X0024444Y0041549D01*
X0024444Y0042548D02*
X0023844Y0042548D01*
X0023844Y0037555D02*
X0024444Y0037555D01*
X0024444Y0036557D02*
X0023844Y0036557D01*
X0023844Y0035558D02*
X0024444Y0035558D01*
X0024444Y0034560D02*
X0023844Y0034560D01*
X0025044Y0033561D02*
X0019093Y0033561D01*
X0018844Y0034560D02*
X0019444Y0034560D01*
X0019444Y0035558D02*
X0018844Y0035558D01*
X0018844Y0036557D02*
X0019444Y0036557D01*
X0019444Y0037555D02*
X0018844Y0037555D01*
X0019594Y0032563D02*
X0025044Y0032563D01*
X0025044Y0031564D02*
X0019594Y0031564D01*
X0019594Y0030566D02*
X0025044Y0030566D01*
X0025044Y0029567D02*
X0019594Y0029567D01*
X0019594Y0028569D02*
X0025044Y0028569D01*
X0025417Y0027570D02*
X0020228Y0027570D01*
X0021227Y0026572D02*
X0024562Y0026572D01*
X0024064Y0025573D02*
X0021724Y0025573D01*
X0021994Y0024575D02*
X0023794Y0024575D01*
X0023794Y0023576D02*
X0021994Y0023576D01*
X0021994Y0022578D02*
X0023794Y0022578D01*
X0023794Y0021579D02*
X0021994Y0021579D01*
X0021994Y0020581D02*
X0023794Y0020581D01*
X0023794Y0019582D02*
X0021994Y0019582D01*
X0021994Y0018584D02*
X0023794Y0018584D01*
X0023794Y0017585D02*
X0021994Y0017585D01*
X0021703Y0016587D02*
X0024086Y0016587D01*
X0024614Y0015588D02*
X0021174Y0015588D01*
X0020119Y0014590D02*
X0025670Y0014590D01*
X0030119Y0014590D02*
X0035670Y0014590D01*
X0034614Y0015588D02*
X0031174Y0015588D01*
X0031703Y0016587D02*
X0034086Y0016587D01*
X0033794Y0017585D02*
X0031994Y0017585D01*
X0031994Y0018584D02*
X0033794Y0018584D01*
X0033794Y0019582D02*
X0031994Y0019582D01*
X0031994Y0020581D02*
X0033794Y0020581D01*
X0033794Y0021579D02*
X0031994Y0021579D01*
X0031994Y0022578D02*
X0033794Y0022578D01*
X0033794Y0023576D02*
X0031994Y0023576D01*
X0031994Y0024575D02*
X0033794Y0024575D01*
X0034064Y0025573D02*
X0031724Y0025573D01*
X0031227Y0026572D02*
X0034562Y0026572D01*
X0036644Y0032356D02*
X0041644Y0032356D01*
X0046644Y0033606D02*
X0046644Y0044856D01*
X0043298Y0044856D01*
X0043298Y0051106D01*
X0036644Y0051106D01*
X0036644Y0058306D01*
X0043298Y0061106D02*
X0043298Y0064856D01*
X0034144Y0064856D01*
X0042894Y0069856D02*
X0045276Y0069856D01*
X0045276Y0075574D01*
X0047835Y0075574D02*
X0047835Y0066106D01*
X0046644Y0066106D01*
X0046644Y0047356D01*
X0049144Y0047356D01*
X0055863Y0047356D01*
X0055863Y0064856D01*
X0059548Y0064856D01*
X0062616Y0064515D02*
X0063172Y0064515D01*
X0063172Y0063517D02*
X0062616Y0063517D01*
X0062616Y0062518D02*
X0063172Y0062518D01*
X0063172Y0062235D02*
X0063816Y0061591D01*
X0064641Y0061591D01*
X0064641Y0058121D01*
X0063816Y0058121D01*
X0063172Y0057477D01*
X0063172Y0052235D01*
X0063816Y0051591D01*
X0065034Y0051591D01*
X0065034Y0049293D01*
X0064407Y0049293D01*
X0063763Y0048648D01*
X0063763Y0043012D01*
X0064407Y0042368D01*
X0067544Y0042368D01*
X0067544Y0027054D01*
X0066918Y0026428D01*
X0066294Y0024921D01*
X0066294Y0017290D01*
X0066918Y0015783D01*
X0068072Y0014630D01*
X0069579Y0014006D01*
X0071210Y0014006D01*
X0072717Y0014630D01*
X0073794Y0015708D01*
X0073794Y0013956D01*
X0061994Y0013956D01*
X0061994Y0014331D01*
X0062717Y0014630D01*
X0063870Y0015783D01*
X0064494Y0017290D01*
X0064494Y0024921D01*
X0063870Y0026428D01*
X0062717Y0027582D01*
X0061994Y0027881D01*
X0061994Y0032919D01*
X0065121Y0032919D01*
X0065766Y0033564D01*
X0065766Y0039199D01*
X0065121Y0039844D01*
X0060667Y0039844D01*
X0060022Y0039199D01*
X0060022Y0037981D01*
X0059731Y0037981D01*
X0059494Y0037744D01*
X0059494Y0042368D01*
X0061381Y0042368D01*
X0062026Y0043012D01*
X0062026Y0048648D01*
X0061381Y0049293D01*
X0060754Y0049293D01*
X0060754Y0051591D01*
X0061972Y0051591D01*
X0062616Y0052235D01*
X0062616Y0057477D01*
X0061972Y0058121D01*
X0057463Y0058121D01*
X0057463Y0061591D01*
X0061972Y0061591D01*
X0062616Y0062235D01*
X0062616Y0067477D01*
X0061972Y0068121D01*
X0057123Y0068121D01*
X0056479Y0067477D01*
X0056479Y0066456D01*
X0055200Y0066456D01*
X0054263Y0065519D01*
X0054263Y0048956D01*
X0053656Y0048956D01*
X0053656Y0050622D01*
X0050475Y0050622D01*
X0050475Y0051590D01*
X0053656Y0051590D01*
X0053656Y0053272D01*
X0053554Y0053653D01*
X0053356Y0053995D01*
X0053077Y0054275D01*
X0052735Y0054472D01*
X0052353Y0054574D01*
X0050475Y0054574D01*
X0050475Y0051590D01*
X0049506Y0051590D01*
X0049506Y0054574D01*
X0048244Y0054574D01*
X0048244Y0057841D01*
X0052415Y0057841D01*
X0053059Y0058485D01*
X0053059Y0063727D01*
X0052415Y0064371D01*
X0051994Y0064371D01*
X0051994Y0071817D01*
X0053703Y0071817D01*
X0053804Y0071717D01*
X0054146Y0071519D01*
X0054527Y0071417D01*
X0055512Y0071417D01*
X0055512Y0075574D01*
X0055512Y0075574D01*
X0055512Y0071417D01*
X0056497Y0071417D01*
X0056879Y0071519D01*
X0057221Y0071717D01*
X0057500Y0071996D01*
X0057621Y0072205D01*
X0058009Y0071817D01*
X0067188Y0071817D01*
X0067544Y0072173D01*
X0067544Y0071456D01*
X0065981Y0071456D01*
X0065044Y0070519D01*
X0065044Y0068121D01*
X0063816Y0068121D01*
X0063172Y0067477D01*
X0063172Y0062235D01*
X0064641Y0061520D02*
X0057463Y0061520D01*
X0057463Y0060521D02*
X0064641Y0060521D01*
X0064641Y0059523D02*
X0057463Y0059523D01*
X0057463Y0058524D02*
X0064641Y0058524D01*
X0063221Y0057526D02*
X0062568Y0057526D01*
X0062616Y0056527D02*
X0063172Y0056527D01*
X0063172Y0055528D02*
X0062616Y0055528D01*
X0062616Y0054530D02*
X0063172Y0054530D01*
X0063172Y0053531D02*
X0062616Y0053531D01*
X0062616Y0052533D02*
X0063172Y0052533D01*
X0065034Y0051534D02*
X0060754Y0051534D01*
X0060754Y0050536D02*
X0065034Y0050536D01*
X0065034Y0049537D02*
X0060754Y0049537D01*
X0062026Y0048539D02*
X0063763Y0048539D01*
X0063763Y0047540D02*
X0062026Y0047540D01*
X0062026Y0046542D02*
X0063763Y0046542D01*
X0063763Y0045543D02*
X0062026Y0045543D01*
X0062026Y0044545D02*
X0063763Y0044545D01*
X0063763Y0043546D02*
X0062026Y0043546D01*
X0061561Y0042548D02*
X0064227Y0042548D01*
X0065413Y0039552D02*
X0067544Y0039552D01*
X0067544Y0038554D02*
X0065766Y0038554D01*
X0065766Y0037555D02*
X0067544Y0037555D01*
X0067544Y0036557D02*
X0065766Y0036557D01*
X0065766Y0035558D02*
X0067544Y0035558D01*
X0067544Y0034560D02*
X0065766Y0034560D01*
X0065763Y0033561D02*
X0067544Y0033561D01*
X0067544Y0032563D02*
X0061994Y0032563D01*
X0061994Y0031564D02*
X0067544Y0031564D01*
X0067544Y0030566D02*
X0061994Y0030566D01*
X0061994Y0029567D02*
X0067544Y0029567D01*
X0067544Y0028569D02*
X0061994Y0028569D01*
X0062728Y0027570D02*
X0067544Y0027570D01*
X0067062Y0026572D02*
X0063727Y0026572D01*
X0064224Y0025573D02*
X0066564Y0025573D01*
X0066294Y0024575D02*
X0064494Y0024575D01*
X0064494Y0023576D02*
X0066294Y0023576D01*
X0066294Y0022578D02*
X0064494Y0022578D01*
X0064494Y0021579D02*
X0066294Y0021579D01*
X0066294Y0020581D02*
X0064494Y0020581D01*
X0064494Y0019582D02*
X0066294Y0019582D01*
X0066294Y0018584D02*
X0064494Y0018584D01*
X0064494Y0017585D02*
X0066294Y0017585D01*
X0066586Y0016587D02*
X0064203Y0016587D01*
X0063674Y0015588D02*
X0067114Y0015588D01*
X0068170Y0014590D02*
X0062619Y0014590D01*
X0060394Y0012356D02*
X0060394Y0021106D01*
X0060394Y0036381D01*
X0062894Y0036381D01*
X0060022Y0038554D02*
X0059494Y0038554D01*
X0059494Y0039552D02*
X0060375Y0039552D01*
X0059494Y0040551D02*
X0067544Y0040551D01*
X0067544Y0041549D02*
X0059494Y0041549D01*
X0056294Y0041549D02*
X0053059Y0041549D01*
X0053059Y0040551D02*
X0056294Y0040551D01*
X0056294Y0039552D02*
X0053059Y0039552D01*
X0053059Y0038554D02*
X0056294Y0038554D01*
X0056294Y0037555D02*
X0048244Y0037555D01*
X0048244Y0036557D02*
X0049728Y0036557D01*
X0051060Y0036557D02*
X0056294Y0036557D01*
X0056294Y0035558D02*
X0052658Y0035558D01*
X0053226Y0034560D02*
X0056294Y0034560D01*
X0056294Y0033561D02*
X0053375Y0033561D01*
X0053189Y0032563D02*
X0056294Y0032563D01*
X0057894Y0028606D02*
X0026644Y0028606D01*
X0036644Y0032356D02*
X0036644Y0038906D01*
X0036594Y0038554D02*
X0036694Y0038554D01*
X0036694Y0037555D02*
X0036594Y0037555D01*
X0036594Y0036557D02*
X0036694Y0036557D01*
X0036694Y0035558D02*
X0036594Y0035558D01*
X0036594Y0034560D02*
X0036694Y0034560D01*
X0036694Y0033561D02*
X0036594Y0033561D01*
X0041227Y0026572D02*
X0046623Y0026572D01*
X0046139Y0025573D02*
X0041724Y0025573D01*
X0041994Y0024575D02*
X0045912Y0024575D01*
X0045894Y0023576D02*
X0041994Y0023576D01*
X0041994Y0022578D02*
X0045894Y0022578D01*
X0045894Y0020581D02*
X0041994Y0020581D01*
X0041994Y0021579D02*
X0049894Y0021579D01*
X0049894Y0020581D02*
X0050894Y0020581D01*
X0050894Y0020606D02*
X0050894Y0013629D01*
X0051448Y0013717D01*
X0052121Y0013936D01*
X0052753Y0014257D01*
X0053326Y0014673D01*
X0053826Y0015174D01*
X0054243Y0015747D01*
X0054564Y0016378D01*
X0054783Y0017052D01*
X0054894Y0017752D01*
X0054894Y0020606D01*
X0050894Y0020606D01*
X0050894Y0021579D02*
X0056294Y0021579D01*
X0056294Y0020581D02*
X0054894Y0020581D01*
X0054894Y0019582D02*
X0056294Y0019582D01*
X0056294Y0018584D02*
X0054894Y0018584D01*
X0054868Y0017585D02*
X0056294Y0017585D01*
X0056586Y0016587D02*
X0054632Y0016587D01*
X0054127Y0015588D02*
X0057114Y0015588D01*
X0058170Y0014590D02*
X0053210Y0014590D01*
X0050894Y0014590D02*
X0049894Y0014590D01*
X0049894Y0015588D02*
X0050894Y0015588D01*
X0050894Y0016587D02*
X0049894Y0016587D01*
X0049894Y0017585D02*
X0050894Y0017585D01*
X0050894Y0018584D02*
X0049894Y0018584D01*
X0049894Y0019582D02*
X0050894Y0019582D01*
X0054894Y0022578D02*
X0056294Y0022578D01*
X0056294Y0023576D02*
X0054894Y0023576D01*
X0054876Y0024575D02*
X0056294Y0024575D01*
X0056564Y0025573D02*
X0054649Y0025573D01*
X0054165Y0026572D02*
X0057062Y0026572D01*
X0057894Y0028606D02*
X0057894Y0045830D01*
X0059154Y0045830D01*
X0059154Y0053606D01*
X0059548Y0054856D01*
X0054263Y0054530D02*
X0052519Y0054530D01*
X0053586Y0053531D02*
X0054263Y0053531D01*
X0054263Y0052533D02*
X0053656Y0052533D01*
X0054263Y0051534D02*
X0050475Y0051534D01*
X0049991Y0051106D02*
X0053363Y0051106D01*
X0053363Y0067356D01*
X0055512Y0067356D01*
X0055512Y0075574D01*
X0055512Y0075499D02*
X0055512Y0075499D01*
X0055512Y0074500D02*
X0055512Y0074500D01*
X0055512Y0073502D02*
X0055512Y0073502D01*
X0055512Y0072503D02*
X0055512Y0072503D01*
X0055512Y0071505D02*
X0055512Y0071505D01*
X0056825Y0071505D02*
X0067544Y0071505D01*
X0066644Y0069856D02*
X0066644Y0064856D01*
X0066241Y0064856D01*
X0066241Y0054856D01*
X0066634Y0053606D01*
X0066634Y0045830D01*
X0069144Y0045830D01*
X0069144Y0023606D01*
X0070394Y0023606D01*
X0070394Y0021106D01*
X0073794Y0026504D02*
X0072717Y0027582D01*
X0071210Y0028206D01*
X0070744Y0028206D01*
X0070744Y0046493D01*
X0069807Y0047430D01*
X0069506Y0047430D01*
X0069506Y0048648D01*
X0068862Y0049293D01*
X0068234Y0049293D01*
X0068234Y0051591D01*
X0068665Y0051591D01*
X0069309Y0052235D01*
X0069309Y0057477D01*
X0068665Y0058121D01*
X0067841Y0058121D01*
X0067841Y0061591D01*
X0068665Y0061591D01*
X0069309Y0062235D01*
X0069309Y0067477D01*
X0068665Y0068121D01*
X0068244Y0068121D01*
X0068244Y0068256D01*
X0069807Y0068256D01*
X0070744Y0069193D01*
X0070744Y0078256D01*
X0072781Y0078256D01*
X0072544Y0078019D01*
X0072544Y0076291D01*
X0072517Y0076291D01*
X0071873Y0075646D01*
X0071873Y0070010D01*
X0072517Y0069366D01*
X0075692Y0069366D01*
X0075792Y0069266D01*
X0076134Y0069068D01*
X0076516Y0068966D01*
X0077804Y0068966D01*
X0077804Y0072738D01*
X0077985Y0072738D01*
X0077985Y0068966D01*
X0079273Y0068966D01*
X0079654Y0069068D01*
X0079996Y0069266D01*
X0080034Y0069304D01*
X0080034Y0066456D01*
X0077231Y0066456D01*
X0076294Y0065519D01*
X0076294Y0064574D01*
X0075032Y0064574D01*
X0075032Y0061590D01*
X0074063Y0061590D01*
X0074063Y0060622D01*
X0070882Y0060622D01*
X0070882Y0058940D01*
X0070985Y0058558D01*
X0071182Y0058216D01*
X0071461Y0057937D01*
X0071803Y0057740D01*
X0072185Y0057637D01*
X0074063Y0057637D01*
X0074063Y0060622D01*
X0075032Y0060622D01*
X0075032Y0057637D01*
X0076294Y0057637D01*
X0076294Y0055443D01*
X0077231Y0054506D01*
X0079641Y0054506D01*
X0079641Y0054174D01*
X0078620Y0054174D01*
X0078106Y0053661D01*
X0077913Y0053995D01*
X0077634Y0054275D01*
X0077292Y0054472D01*
X0076910Y0054574D01*
X0075032Y0054574D01*
X0075032Y0051590D01*
X0074063Y0051590D01*
X0074063Y0050622D01*
X0070882Y0050622D01*
X0070882Y0048940D01*
X0070985Y0048558D01*
X0071182Y0048216D01*
X0071461Y0047937D01*
X0071803Y0047740D01*
X0072185Y0047637D01*
X0074063Y0047637D01*
X0074063Y0050622D01*
X0075032Y0050622D01*
X0075032Y0047637D01*
X0076910Y0047637D01*
X0077292Y0047740D01*
X0077634Y0047937D01*
X0077913Y0048216D01*
X0078106Y0048551D01*
X0078620Y0048037D01*
X0079641Y0048037D01*
X0079641Y0044371D01*
X0078816Y0044371D01*
X0078172Y0043727D01*
X0078172Y0038485D01*
X0078794Y0037863D01*
X0078794Y0027881D01*
X0078072Y0027582D01*
X0076994Y0026504D01*
X0076994Y0037863D01*
X0077616Y0038485D01*
X0077616Y0043727D01*
X0076972Y0044371D01*
X0072123Y0044371D01*
X0071479Y0043727D01*
X0071479Y0038485D01*
X0072123Y0037841D01*
X0073794Y0037841D01*
X0073794Y0026504D01*
X0073794Y0026572D02*
X0073727Y0026572D01*
X0073794Y0027570D02*
X0072728Y0027570D01*
X0073794Y0028569D02*
X0070744Y0028569D01*
X0070744Y0029567D02*
X0073794Y0029567D01*
X0073794Y0030566D02*
X0070744Y0030566D01*
X0070744Y0031564D02*
X0073794Y0031564D01*
X0073794Y0032563D02*
X0070744Y0032563D01*
X0070744Y0033561D02*
X0073794Y0033561D01*
X0073794Y0034560D02*
X0070744Y0034560D01*
X0070744Y0035558D02*
X0073794Y0035558D01*
X0073794Y0036557D02*
X0070744Y0036557D01*
X0070744Y0037555D02*
X0073794Y0037555D01*
X0071479Y0038554D02*
X0070744Y0038554D01*
X0070744Y0039552D02*
X0071479Y0039552D01*
X0071479Y0040551D02*
X0070744Y0040551D01*
X0070744Y0041549D02*
X0071479Y0041549D01*
X0071479Y0042548D02*
X0070744Y0042548D01*
X0070744Y0043546D02*
X0071479Y0043546D01*
X0070744Y0044545D02*
X0079641Y0044545D01*
X0079641Y0045543D02*
X0070744Y0045543D01*
X0070695Y0046542D02*
X0079641Y0046542D01*
X0079641Y0047540D02*
X0069506Y0047540D01*
X0069506Y0048539D02*
X0070996Y0048539D01*
X0070882Y0049537D02*
X0068234Y0049537D01*
X0068234Y0050536D02*
X0070882Y0050536D01*
X0070882Y0051590D02*
X0074063Y0051590D01*
X0074063Y0054574D01*
X0072185Y0054574D01*
X0071803Y0054472D01*
X0071461Y0054275D01*
X0071182Y0053995D01*
X0070985Y0053653D01*
X0070882Y0053272D01*
X0070882Y0051590D01*
X0070882Y0052533D02*
X0069309Y0052533D01*
X0069309Y0053531D02*
X0070952Y0053531D01*
X0072019Y0054530D02*
X0069309Y0054530D01*
X0069309Y0055528D02*
X0076294Y0055528D01*
X0076294Y0056527D02*
X0069309Y0056527D01*
X0069260Y0057526D02*
X0076294Y0057526D01*
X0075032Y0058524D02*
X0074063Y0058524D01*
X0074063Y0059523D02*
X0075032Y0059523D01*
X0075032Y0060521D02*
X0074063Y0060521D01*
X0074548Y0061106D02*
X0074548Y0051106D01*
X0074063Y0051534D02*
X0068234Y0051534D01*
X0074063Y0050536D02*
X0075032Y0050536D01*
X0075032Y0049537D02*
X0074063Y0049537D01*
X0074063Y0048539D02*
X0075032Y0048539D01*
X0078099Y0048539D02*
X0078118Y0048539D01*
X0081241Y0051106D02*
X0081241Y0056106D01*
X0077894Y0056106D01*
X0077894Y0064856D01*
X0081634Y0064856D01*
X0081634Y0072828D01*
X0081634Y0077356D01*
X0077894Y0077356D01*
X0077894Y0078606D01*
X0077894Y0077356D02*
X0074144Y0077356D01*
X0074144Y0072828D01*
X0074154Y0072828D01*
X0071873Y0072503D02*
X0070744Y0072503D01*
X0070744Y0071505D02*
X0071873Y0071505D01*
X0071873Y0070506D02*
X0070744Y0070506D01*
X0070744Y0069508D02*
X0072376Y0069508D01*
X0070060Y0068509D02*
X0080034Y0068509D01*
X0080034Y0067511D02*
X0069275Y0067511D01*
X0069309Y0066512D02*
X0080034Y0066512D01*
X0077894Y0067356D02*
X0074548Y0067356D01*
X0074548Y0061106D01*
X0074063Y0061520D02*
X0067841Y0061520D01*
X0067841Y0060521D02*
X0070882Y0060521D01*
X0070882Y0059523D02*
X0067841Y0059523D01*
X0067841Y0058524D02*
X0071004Y0058524D01*
X0070882Y0061590D02*
X0074063Y0061590D01*
X0074063Y0064574D01*
X0072185Y0064574D01*
X0071803Y0064472D01*
X0071461Y0064275D01*
X0071182Y0063995D01*
X0070985Y0063653D01*
X0070882Y0063272D01*
X0070882Y0061590D01*
X0070882Y0062518D02*
X0069309Y0062518D01*
X0069309Y0063517D02*
X0070948Y0063517D01*
X0071963Y0064515D02*
X0069309Y0064515D01*
X0069309Y0065514D02*
X0076294Y0065514D01*
X0075032Y0064515D02*
X0074063Y0064515D01*
X0074063Y0063517D02*
X0075032Y0063517D01*
X0075032Y0062518D02*
X0074063Y0062518D01*
X0077894Y0067356D02*
X0077894Y0072828D01*
X0077804Y0072503D02*
X0077985Y0072503D01*
X0077985Y0071505D02*
X0077804Y0071505D01*
X0077804Y0070506D02*
X0077985Y0070506D01*
X0077985Y0069508D02*
X0077804Y0069508D01*
X0081634Y0072828D02*
X0081644Y0072828D01*
X0072544Y0076497D02*
X0070744Y0076497D01*
X0070744Y0075499D02*
X0071873Y0075499D01*
X0071873Y0074500D02*
X0070744Y0074500D01*
X0070744Y0073502D02*
X0071873Y0073502D01*
X0069144Y0069856D02*
X0066644Y0069856D01*
X0065044Y0069508D02*
X0051994Y0069508D01*
X0051994Y0070506D02*
X0065044Y0070506D01*
X0065044Y0068509D02*
X0051994Y0068509D01*
X0051994Y0067511D02*
X0056513Y0067511D01*
X0056479Y0066512D02*
X0051994Y0066512D01*
X0051994Y0065514D02*
X0054263Y0065514D01*
X0054263Y0064515D02*
X0051994Y0064515D01*
X0053059Y0063517D02*
X0054263Y0063517D01*
X0054263Y0062518D02*
X0053059Y0062518D01*
X0053059Y0061520D02*
X0054263Y0061520D01*
X0054263Y0060521D02*
X0053059Y0060521D01*
X0053059Y0059523D02*
X0054263Y0059523D01*
X0054263Y0058524D02*
X0053059Y0058524D01*
X0054263Y0057526D02*
X0048244Y0057526D01*
X0048244Y0056527D02*
X0054263Y0056527D01*
X0054263Y0055528D02*
X0048244Y0055528D01*
X0049506Y0054530D02*
X0050475Y0054530D01*
X0050475Y0053531D02*
X0049506Y0053531D01*
X0049506Y0052533D02*
X0050475Y0052533D01*
X0053656Y0050536D02*
X0054263Y0050536D01*
X0054263Y0049537D02*
X0053656Y0049537D01*
X0056282Y0045543D02*
X0050744Y0045543D01*
X0050744Y0044545D02*
X0056282Y0044545D01*
X0056282Y0043546D02*
X0053059Y0043546D01*
X0053059Y0042548D02*
X0056294Y0042548D01*
X0049991Y0041106D02*
X0049144Y0041106D01*
X0049144Y0047356D01*
X0049991Y0061106D02*
X0050394Y0061106D01*
X0050394Y0075574D01*
X0051994Y0071505D02*
X0054200Y0071505D01*
X0062582Y0067511D02*
X0063206Y0067511D01*
X0063172Y0066512D02*
X0062616Y0066512D01*
X0062616Y0065514D02*
X0063172Y0065514D01*
X0069144Y0069856D02*
X0069144Y0079856D01*
X0074154Y0079856D01*
X0074154Y0081883D01*
X0072544Y0077496D02*
X0070744Y0077496D01*
X0081634Y0081883D02*
X0084144Y0081883D01*
X0084144Y0061106D01*
X0081241Y0061106D01*
X0084823Y0059523D02*
X0085344Y0059523D01*
X0085344Y0058524D02*
X0084348Y0058524D01*
X0085344Y0057526D02*
X0082084Y0057526D01*
X0082841Y0056527D02*
X0085344Y0056527D01*
X0085344Y0055528D02*
X0082841Y0055528D01*
X0082841Y0054530D02*
X0085344Y0054530D01*
X0085344Y0053531D02*
X0084504Y0053531D01*
X0084506Y0052533D02*
X0085344Y0052533D01*
X0085344Y0051534D02*
X0084506Y0051534D01*
X0084506Y0050536D02*
X0085344Y0050536D01*
X0085344Y0049537D02*
X0084506Y0049537D01*
X0084363Y0048539D02*
X0085344Y0048539D01*
X0085344Y0047540D02*
X0082841Y0047540D01*
X0082841Y0046542D02*
X0085344Y0046542D01*
X0085344Y0045543D02*
X0082841Y0045543D01*
X0082841Y0044545D02*
X0085344Y0044545D01*
X0085344Y0043546D02*
X0084309Y0043546D01*
X0084309Y0042548D02*
X0085344Y0042548D01*
X0085344Y0041549D02*
X0084309Y0041549D01*
X0084309Y0040551D02*
X0085344Y0040551D01*
X0085344Y0039552D02*
X0084309Y0039552D01*
X0084309Y0038554D02*
X0085344Y0038554D01*
X0085344Y0037555D02*
X0081994Y0037555D01*
X0081994Y0036557D02*
X0085344Y0036557D01*
X0085344Y0035558D02*
X0081994Y0035558D01*
X0081994Y0034560D02*
X0085344Y0034560D01*
X0085344Y0033561D02*
X0081994Y0033561D01*
X0081994Y0032563D02*
X0085344Y0032563D01*
X0085344Y0031564D02*
X0081994Y0031564D01*
X0081994Y0030566D02*
X0085344Y0030566D01*
X0085344Y0029567D02*
X0081994Y0029567D01*
X0081994Y0028569D02*
X0085344Y0028569D01*
X0085344Y0027570D02*
X0082728Y0027570D01*
X0083727Y0026572D02*
X0085344Y0026572D01*
X0085344Y0025573D02*
X0084224Y0025573D01*
X0084494Y0024575D02*
X0085344Y0024575D01*
X0085344Y0023576D02*
X0084494Y0023576D01*
X0084494Y0022578D02*
X0085344Y0022578D01*
X0085344Y0021579D02*
X0084494Y0021579D01*
X0084494Y0020581D02*
X0085344Y0020581D01*
X0085344Y0019582D02*
X0084494Y0019582D01*
X0084494Y0018584D02*
X0085344Y0018584D01*
X0085344Y0017585D02*
X0084494Y0017585D01*
X0084203Y0016587D02*
X0085344Y0016587D01*
X0085344Y0015588D02*
X0083674Y0015588D01*
X0082619Y0014590D02*
X0085344Y0014590D01*
X0085344Y0013591D02*
X0076994Y0013591D01*
X0076994Y0012593D02*
X0085344Y0012593D01*
X0085344Y0011594D02*
X0076895Y0011594D01*
X0075394Y0012356D02*
X0060394Y0012356D01*
X0058794Y0012593D02*
X0002944Y0012593D01*
X0002944Y0013591D02*
X0058794Y0013591D01*
X0058893Y0011594D02*
X0002944Y0011594D01*
X0002944Y0010595D02*
X0085344Y0010595D01*
X0078170Y0014590D02*
X0076994Y0014590D01*
X0076994Y0015588D02*
X0077114Y0015588D01*
X0073794Y0015588D02*
X0073674Y0015588D01*
X0073794Y0014590D02*
X0072619Y0014590D01*
X0075394Y0012356D02*
X0075394Y0042356D01*
X0074548Y0041106D01*
X0077616Y0041549D02*
X0078172Y0041549D01*
X0078172Y0040551D02*
X0077616Y0040551D01*
X0077616Y0039552D02*
X0078172Y0039552D01*
X0078172Y0038554D02*
X0077616Y0038554D01*
X0076994Y0037555D02*
X0078794Y0037555D01*
X0078794Y0036557D02*
X0076994Y0036557D01*
X0076994Y0035558D02*
X0078794Y0035558D01*
X0078794Y0034560D02*
X0076994Y0034560D01*
X0076994Y0033561D02*
X0078794Y0033561D01*
X0078794Y0032563D02*
X0076994Y0032563D01*
X0076994Y0031564D02*
X0078794Y0031564D01*
X0078794Y0030566D02*
X0076994Y0030566D01*
X0076994Y0029567D02*
X0078794Y0029567D01*
X0078794Y0028569D02*
X0076994Y0028569D01*
X0076994Y0027570D02*
X0078060Y0027570D01*
X0077062Y0026572D02*
X0076994Y0026572D01*
X0080394Y0021106D02*
X0080394Y0041106D01*
X0081241Y0041106D01*
X0081241Y0051106D01*
X0077207Y0054530D02*
X0077076Y0054530D01*
X0075032Y0054530D02*
X0074063Y0054530D01*
X0074063Y0053531D02*
X0075032Y0053531D01*
X0075032Y0052533D02*
X0074063Y0052533D01*
X0077616Y0043546D02*
X0078172Y0043546D01*
X0078172Y0042548D02*
X0077616Y0042548D01*
X0045894Y0019582D02*
X0041994Y0019582D01*
X0041994Y0018584D02*
X0045894Y0018584D01*
X0045920Y0017585D02*
X0041994Y0017585D01*
X0041703Y0016587D02*
X0046156Y0016587D01*
X0046661Y0015588D02*
X0041174Y0015588D01*
X0040119Y0014590D02*
X0047578Y0014590D01*
X0015670Y0014590D02*
X0010710Y0014590D01*
X0011627Y0015588D02*
X0014614Y0015588D01*
X0014086Y0016587D02*
X0012132Y0016587D01*
X0012368Y0017585D02*
X0013794Y0017585D01*
X0013794Y0018584D02*
X0012394Y0018584D01*
X0012394Y0019582D02*
X0013794Y0019582D01*
X0013794Y0020581D02*
X0012394Y0020581D01*
X0003394Y0022578D02*
X0002944Y0022578D01*
X0002944Y0052533D02*
X0004067Y0052533D01*
X0004863Y0053531D02*
X0002944Y0053531D01*
X0002944Y0054530D02*
X0004444Y0054530D01*
X0004444Y0055528D02*
X0002944Y0055528D01*
X0002944Y0056527D02*
X0004444Y0056527D01*
X0004444Y0057526D02*
X0002944Y0057526D01*
X0002944Y0058524D02*
X0004444Y0058524D01*
X0004444Y0059523D02*
X0002944Y0059523D01*
X0002944Y0060521D02*
X0004444Y0060521D01*
X0004444Y0061520D02*
X0002944Y0061520D01*
X0002944Y0062518D02*
X0004444Y0062518D01*
X0002944Y0063517D02*
X0024944Y0063517D01*
X0024444Y0062518D02*
X0023844Y0062518D01*
X0023844Y0061520D02*
X0024444Y0061520D01*
X0024444Y0060521D02*
X0023844Y0060521D01*
X0023844Y0059523D02*
X0024444Y0059523D01*
X0024444Y0058524D02*
X0023844Y0058524D01*
X0023844Y0057526D02*
X0024444Y0057526D01*
X0024444Y0056527D02*
X0023844Y0056527D01*
X0023844Y0055528D02*
X0024444Y0055528D01*
X0024444Y0054530D02*
X0023844Y0054530D01*
X0023425Y0053531D02*
X0024863Y0053531D01*
X0024067Y0052533D02*
X0023244Y0052533D01*
X0007444Y0052533D02*
X0006721Y0052533D01*
X0020224Y0069508D02*
X0022326Y0069508D01*
X0022451Y0070506D02*
X0020224Y0070506D01*
X0020224Y0071505D02*
X0022145Y0071505D01*
X0021926Y0072503D02*
X0020224Y0072503D01*
X0020224Y0073502D02*
X0021926Y0073502D01*
X0019864Y0074500D02*
X0024910Y0074500D01*
X0024910Y0075499D02*
X0025878Y0075499D01*
X0025878Y0076497D02*
X0024910Y0076497D01*
X0024910Y0077496D02*
X0025878Y0077496D01*
X0025878Y0078494D02*
X0024910Y0078494D01*
X0024910Y0079493D02*
X0025878Y0079493D01*
X0025878Y0080491D02*
X0024910Y0080491D01*
D22*
X0011644Y0077356D03*
X0042894Y0069856D03*
X0051644Y0056106D03*
X0072894Y0046106D03*
X0050394Y0033606D03*
X0041644Y0032356D03*
X0025394Y0049856D03*
X0015394Y0049856D03*
X0005394Y0049856D03*
X0077894Y0078606D03*
D23*
X0036644Y0061106D02*
X0036644Y0058306D01*
X0031644Y0058306D02*
X0031644Y0071106D01*
X0029144Y0071106D01*
X0029144Y0088202D01*
X0025394Y0088202D01*
X0021644Y0088202D01*
X0021644Y0081106D01*
X0006920Y0081106D01*
X0006920Y0087267D01*
X0016369Y0069944D02*
X0017894Y0067444D01*
X0017894Y0067356D01*
X0025394Y0067356D01*
X0025394Y0067759D01*
X0026644Y0066509D01*
X0026644Y0058306D01*
X0016644Y0058306D02*
X0011644Y0058306D01*
X0009144Y0058306D02*
X0009144Y0032356D01*
X0017894Y0032356D01*
X0017894Y0021106D01*
X0009144Y0058306D02*
X0006644Y0058306D01*
M02*
