G75*
%MOIN*%
%OFA0B0*%
%FSLAX25Y25*%
%IPPOS*%
%LPD*%
%AMOC8*
5,1,8,0,0,1.08239X$1,22.5*
%
%ADD10C,0.00400*%
%ADD11C,0.00200*%
%ADD12C,0.00500*%
D10*
X0010004Y0083806D02*
X0013473Y0083806D01*
X0011739Y0083806D02*
X0011739Y0089010D01*
X0013473Y0087276D01*
X0015184Y0084673D02*
X0015184Y0083806D01*
X0016052Y0083806D01*
X0016052Y0084673D01*
X0015184Y0084673D01*
X0017738Y0084673D02*
X0018606Y0083806D01*
X0020341Y0083806D01*
X0021208Y0084673D01*
X0022919Y0084673D02*
X0022919Y0083806D01*
X0023786Y0083806D01*
X0023786Y0084673D01*
X0022919Y0084673D01*
X0025473Y0084673D02*
X0026340Y0083806D01*
X0028075Y0083806D01*
X0028943Y0084673D01*
X0025473Y0088143D01*
X0025473Y0084673D01*
X0028943Y0084673D02*
X0028943Y0088143D01*
X0028075Y0089010D01*
X0026340Y0089010D01*
X0025473Y0088143D01*
X0021208Y0088143D02*
X0020341Y0089010D01*
X0018606Y0089010D01*
X0017738Y0088143D01*
X0017738Y0087276D01*
X0018606Y0086408D01*
X0017738Y0085541D01*
X0017738Y0084673D01*
X0018606Y0086408D02*
X0019473Y0086408D01*
X0030629Y0087276D02*
X0032364Y0083806D01*
X0034099Y0087276D01*
X0040942Y0086408D02*
X0040942Y0085541D01*
X0044412Y0085541D01*
X0044412Y0086408D02*
X0043544Y0087276D01*
X0041809Y0087276D01*
X0040942Y0086408D01*
X0041809Y0083806D02*
X0043544Y0083806D01*
X0044412Y0084673D01*
X0044412Y0086408D01*
X0046098Y0087276D02*
X0047833Y0083806D01*
X0049568Y0087276D01*
X0051255Y0086408D02*
X0051255Y0083806D01*
X0053857Y0083806D01*
X0054725Y0084673D01*
X0053857Y0085541D01*
X0051255Y0085541D01*
X0051255Y0086408D02*
X0052122Y0087276D01*
X0053857Y0087276D01*
X0056411Y0087276D02*
X0056411Y0084673D01*
X0057279Y0083806D01*
X0058146Y0084673D01*
X0059014Y0083806D01*
X0059881Y0084673D01*
X0059881Y0087276D01*
X0061568Y0086408D02*
X0061568Y0085541D01*
X0065037Y0085541D01*
X0065037Y0086408D02*
X0064170Y0087276D01*
X0062435Y0087276D01*
X0061568Y0086408D01*
X0062435Y0083806D02*
X0064170Y0083806D01*
X0065037Y0084673D01*
X0065037Y0086408D01*
X0066724Y0086408D02*
X0066724Y0083806D01*
X0066724Y0086408D02*
X0067591Y0087276D01*
X0070194Y0087276D01*
X0070194Y0083806D01*
X0071896Y0083806D02*
X0073631Y0083806D01*
X0072764Y0083806D02*
X0072764Y0087276D01*
X0073631Y0087276D01*
X0075318Y0086408D02*
X0075318Y0083806D01*
X0075318Y0086408D02*
X0076185Y0087276D01*
X0077920Y0087276D01*
X0078788Y0086408D01*
X0080474Y0085541D02*
X0080474Y0084673D01*
X0081342Y0083806D01*
X0083077Y0083806D01*
X0083944Y0084673D01*
X0083077Y0086408D02*
X0081342Y0086408D01*
X0080474Y0085541D01*
X0078788Y0083806D02*
X0078788Y0089010D01*
X0080474Y0088143D02*
X0081342Y0089010D01*
X0083077Y0089010D01*
X0083944Y0088143D01*
X0083944Y0087276D01*
X0083077Y0086408D01*
X0072764Y0089010D02*
X0072764Y0089878D01*
D11*
X0005656Y0011573D02*
X0006023Y0011206D01*
X0007124Y0011206D01*
X0007124Y0013408D01*
X0006023Y0013408D01*
X0005656Y0013041D01*
X0005656Y0011573D01*
X0007866Y0011206D02*
X0007866Y0013408D01*
X0009334Y0013408D02*
X0007866Y0011206D01*
X0009334Y0011206D02*
X0009334Y0013408D01*
X0010076Y0013041D02*
X0010443Y0013408D01*
X0011177Y0013408D01*
X0011544Y0013041D01*
X0011544Y0011573D01*
X0011177Y0011206D01*
X0010443Y0011206D01*
X0010076Y0011573D01*
X0010076Y0012307D01*
X0010810Y0012307D01*
X0014183Y0011206D02*
X0015651Y0011206D01*
X0014917Y0011206D02*
X0014917Y0013408D01*
X0015651Y0012674D01*
X0016393Y0013041D02*
X0016760Y0013408D01*
X0017494Y0013408D01*
X0017861Y0013041D01*
X0017861Y0011573D01*
X0017494Y0011206D01*
X0016760Y0011206D01*
X0016393Y0011573D01*
X0016393Y0012307D01*
X0017127Y0012307D01*
X0018600Y0013408D02*
X0019334Y0013408D01*
X0018967Y0013408D02*
X0018967Y0011206D01*
X0019334Y0011206D02*
X0018600Y0011206D01*
X0020076Y0011573D02*
X0020076Y0011940D01*
X0020443Y0012307D01*
X0021177Y0012307D01*
X0021544Y0012674D01*
X0021544Y0013041D01*
X0021177Y0013408D01*
X0020443Y0013408D01*
X0020076Y0013041D01*
X0020076Y0011573D02*
X0020443Y0011206D01*
X0021177Y0011206D01*
X0021544Y0011573D01*
X0024551Y0011940D02*
X0024551Y0013408D01*
X0024551Y0011940D02*
X0025285Y0011206D01*
X0026019Y0011940D01*
X0026019Y0013408D01*
X0026761Y0013041D02*
X0026761Y0012674D01*
X0027128Y0012307D01*
X0026761Y0011940D01*
X0026761Y0011573D01*
X0027128Y0011206D01*
X0027862Y0011206D01*
X0028229Y0011573D01*
X0028967Y0011573D02*
X0028967Y0011206D01*
X0029334Y0011206D01*
X0029334Y0011573D01*
X0028967Y0011573D01*
X0030076Y0011573D02*
X0030076Y0011940D01*
X0030443Y0012307D01*
X0030810Y0012307D01*
X0030443Y0012307D02*
X0030076Y0012674D01*
X0030076Y0013041D01*
X0030443Y0013408D01*
X0031177Y0013408D01*
X0031544Y0013041D01*
X0031544Y0011573D02*
X0031177Y0011206D01*
X0030443Y0011206D01*
X0030076Y0011573D01*
X0028229Y0013041D02*
X0027862Y0013408D01*
X0027128Y0013408D01*
X0026761Y0013041D01*
X0027128Y0012307D02*
X0027495Y0012307D01*
X0036616Y0011940D02*
X0037350Y0011206D01*
X0038084Y0011940D01*
X0038084Y0013408D01*
X0038826Y0013408D02*
X0040294Y0013408D01*
X0040294Y0012307D01*
X0039560Y0012674D01*
X0039193Y0012674D01*
X0038826Y0012307D01*
X0038826Y0011573D01*
X0039193Y0011206D01*
X0039927Y0011206D01*
X0040294Y0011573D01*
X0036616Y0011940D02*
X0036616Y0013408D01*
X0048156Y0013041D02*
X0048156Y0011573D01*
X0048523Y0011206D01*
X0049624Y0011206D01*
X0049624Y0013408D01*
X0048523Y0013408D01*
X0048156Y0013041D01*
X0050366Y0013408D02*
X0050366Y0011206D01*
X0051834Y0013408D01*
X0051834Y0011206D01*
X0052576Y0011573D02*
X0052576Y0012307D01*
X0053310Y0012307D01*
X0052576Y0013041D02*
X0052943Y0013408D01*
X0053677Y0013408D01*
X0054044Y0013041D01*
X0054044Y0011573D01*
X0053677Y0011206D01*
X0052943Y0011206D01*
X0052576Y0011573D01*
X0056683Y0011206D02*
X0058151Y0011206D01*
X0056683Y0012674D01*
X0056683Y0013041D01*
X0057050Y0013408D01*
X0057784Y0013408D01*
X0058151Y0013041D01*
X0058893Y0013041D02*
X0059260Y0013408D01*
X0059994Y0013408D01*
X0060361Y0013041D01*
X0060361Y0011573D01*
X0059994Y0011206D01*
X0059260Y0011206D01*
X0058893Y0011573D01*
X0058893Y0012307D01*
X0059627Y0012307D01*
X0061100Y0013408D02*
X0061834Y0013408D01*
X0061467Y0013408D02*
X0061467Y0011206D01*
X0061834Y0011206D02*
X0061100Y0011206D01*
X0062576Y0011573D02*
X0062576Y0011940D01*
X0062943Y0012307D01*
X0063677Y0012307D01*
X0064044Y0012674D01*
X0064044Y0013041D01*
X0063677Y0013408D01*
X0062943Y0013408D01*
X0062576Y0013041D01*
X0062576Y0011573D02*
X0062943Y0011206D01*
X0063677Y0011206D01*
X0064044Y0011573D01*
X0067051Y0011940D02*
X0067785Y0011206D01*
X0068519Y0011940D01*
X0068519Y0013408D01*
X0069261Y0013041D02*
X0069261Y0012674D01*
X0069628Y0012307D01*
X0069261Y0011940D01*
X0069261Y0011573D01*
X0069628Y0011206D01*
X0070362Y0011206D01*
X0070729Y0011573D01*
X0071467Y0011573D02*
X0071467Y0011206D01*
X0071834Y0011206D01*
X0071834Y0011573D01*
X0071467Y0011573D01*
X0072576Y0011573D02*
X0072576Y0011940D01*
X0072943Y0012307D01*
X0073310Y0012307D01*
X0072943Y0012307D02*
X0072576Y0012674D01*
X0072576Y0013041D01*
X0072943Y0013408D01*
X0073677Y0013408D01*
X0074044Y0013041D01*
X0074044Y0011573D02*
X0073677Y0011206D01*
X0072943Y0011206D01*
X0072576Y0011573D01*
X0070729Y0013041D02*
X0070362Y0013408D01*
X0069628Y0013408D01*
X0069261Y0013041D01*
X0069628Y0012307D02*
X0069995Y0012307D01*
X0067051Y0011940D02*
X0067051Y0013408D01*
X0079116Y0013408D02*
X0079116Y0011940D01*
X0079850Y0011206D01*
X0080584Y0011940D01*
X0080584Y0013408D01*
X0081326Y0013408D02*
X0082794Y0013408D01*
X0082794Y0012307D01*
X0082060Y0012674D01*
X0081693Y0012674D01*
X0081326Y0012307D01*
X0081326Y0011573D01*
X0081693Y0011206D01*
X0082427Y0011206D01*
X0082794Y0011573D01*
X0071177Y0076206D02*
X0070443Y0076206D01*
X0070076Y0076573D01*
X0070076Y0077307D01*
X0070810Y0077307D01*
X0070076Y0078041D02*
X0070443Y0078408D01*
X0071177Y0078408D01*
X0071544Y0078041D01*
X0071544Y0076573D01*
X0071177Y0076206D01*
X0069334Y0076573D02*
X0068967Y0076940D01*
X0067866Y0076940D01*
X0067866Y0077307D02*
X0067866Y0076206D01*
X0068967Y0076206D01*
X0069334Y0076573D01*
X0068233Y0077674D02*
X0067866Y0077307D01*
X0068233Y0077674D02*
X0068967Y0077674D01*
X0067124Y0077674D02*
X0067124Y0076206D01*
X0067124Y0076940D02*
X0066390Y0077674D01*
X0066023Y0077674D01*
X0065283Y0077674D02*
X0065283Y0076206D01*
X0065283Y0076940D02*
X0064549Y0077674D01*
X0064182Y0077674D01*
X0063441Y0077307D02*
X0063074Y0077674D01*
X0062340Y0077674D01*
X0061973Y0077307D01*
X0061973Y0076940D01*
X0063441Y0076940D01*
X0063441Y0076573D02*
X0063441Y0077307D01*
X0063441Y0076573D02*
X0063074Y0076206D01*
X0062340Y0076206D01*
X0060864Y0076573D02*
X0060497Y0076206D01*
X0060864Y0076573D02*
X0060864Y0078041D01*
X0061231Y0077674D02*
X0060497Y0077674D01*
X0059758Y0077674D02*
X0059024Y0077674D01*
X0059391Y0078041D02*
X0059391Y0076573D01*
X0059024Y0076206D01*
X0056075Y0076573D02*
X0056075Y0078041D01*
X0055708Y0078408D01*
X0054974Y0078408D01*
X0054607Y0078041D01*
X0054607Y0077307D02*
X0055341Y0077307D01*
X0054607Y0077307D02*
X0054607Y0076573D01*
X0054974Y0076206D01*
X0055708Y0076206D01*
X0056075Y0076573D01*
X0053865Y0076940D02*
X0053131Y0077674D01*
X0052764Y0077674D01*
X0052023Y0077307D02*
X0051656Y0077674D01*
X0050923Y0077674D01*
X0050556Y0077307D01*
X0050556Y0076940D01*
X0052023Y0076940D01*
X0052023Y0076573D02*
X0052023Y0077307D01*
X0052023Y0076573D02*
X0051656Y0076206D01*
X0050923Y0076206D01*
X0049814Y0076573D02*
X0049814Y0077307D01*
X0049447Y0077674D01*
X0048713Y0077674D01*
X0048346Y0077307D01*
X0048346Y0076940D01*
X0049814Y0076940D01*
X0049814Y0076573D02*
X0049447Y0076206D01*
X0048713Y0076206D01*
X0047604Y0076206D02*
X0047604Y0077674D01*
X0046503Y0077674D01*
X0046136Y0077307D01*
X0046136Y0076206D01*
X0045394Y0076573D02*
X0045027Y0076206D01*
X0044660Y0076573D01*
X0044293Y0076206D01*
X0043926Y0076573D01*
X0043926Y0077674D01*
X0043184Y0077307D02*
X0043184Y0076573D01*
X0042817Y0076206D01*
X0042083Y0076206D01*
X0041716Y0076573D01*
X0041716Y0077307D01*
X0042083Y0077674D01*
X0042817Y0077674D01*
X0043184Y0077307D01*
X0045394Y0077674D02*
X0045394Y0076573D01*
X0040974Y0076573D02*
X0040607Y0076206D01*
X0039873Y0076206D01*
X0039506Y0076573D01*
X0039506Y0077307D01*
X0039873Y0077674D01*
X0040607Y0077674D01*
X0040974Y0077307D01*
X0040974Y0076573D01*
X0038764Y0076573D02*
X0038764Y0077307D01*
X0038397Y0077674D01*
X0037296Y0077674D01*
X0037296Y0078408D02*
X0037296Y0076206D01*
X0038397Y0076206D01*
X0038764Y0076573D01*
X0053865Y0076206D02*
X0053865Y0077674D01*
D12*
X0030394Y0054856D02*
X0010394Y0054856D01*
X0010394Y0044856D01*
X0030394Y0044856D01*
X0030394Y0054856D01*
X0010394Y0059856D02*
X0005394Y0059856D01*
X0005394Y0054856D01*
M02*
