G75*
%MOIN*%
%OFA0B0*%
%FSLAX25Y25*%
%IPPOS*%
%LPD*%
%AMOC8*
5,1,8,0,0,1.08239X$1,22.5*
%
%ADD10R,0.04931X0.04537*%
%ADD11R,0.04537X0.04931*%
%ADD12R,0.04143X0.05324*%
%ADD13R,0.02800X0.08400*%
%ADD14R,0.06112X0.08080*%
%ADD15R,0.02657X0.05167*%
%ADD16R,0.08868X0.08474*%
%ADD17R,0.06899X0.08080*%
%ADD18R,0.02175X0.05915*%
%ADD19C,0.06600*%
%ADD20C,0.04362*%
D10*
X0043298Y0051106D03*
X0049991Y0051106D03*
X0074548Y0051106D03*
X0081241Y0051106D03*
X0081241Y0061106D03*
X0074548Y0061106D03*
D11*
X0066241Y0064856D03*
X0059548Y0064856D03*
X0049991Y0061106D03*
X0043298Y0061106D03*
X0059548Y0054856D03*
X0066241Y0054856D03*
X0074548Y0041106D03*
X0081241Y0041106D03*
X0049991Y0041106D03*
X0043298Y0041106D03*
X0025394Y0067759D03*
X0025394Y0074452D03*
X0025394Y0081509D03*
X0025394Y0088202D03*
D12*
X0059154Y0045830D03*
X0066634Y0045830D03*
X0062894Y0036381D03*
D13*
X0036644Y0038906D03*
X0031644Y0038906D03*
X0026644Y0038906D03*
X0021644Y0038906D03*
X0016644Y0038906D03*
X0011644Y0038906D03*
X0006644Y0038906D03*
X0006644Y0058306D03*
X0011644Y0058306D03*
X0016644Y0058306D03*
X0021644Y0058306D03*
X0026644Y0058306D03*
X0031644Y0058306D03*
X0036644Y0058306D03*
D14*
X0016369Y0069944D03*
X0006920Y0069944D03*
X0006920Y0087267D03*
X0016369Y0087267D03*
D15*
X0074154Y0081908D03*
X0081634Y0081908D03*
X0081634Y0072804D03*
X0077894Y0072804D03*
X0074154Y0072804D03*
D16*
X0062599Y0076854D03*
X0038189Y0076854D03*
D17*
X0034252Y0086106D03*
X0066536Y0086106D03*
D18*
X0055512Y0075574D03*
X0052953Y0075574D03*
X0050394Y0075574D03*
X0047835Y0075574D03*
X0045276Y0075574D03*
D19*
X0007894Y0024106D02*
X0007894Y0018106D01*
X0017894Y0018106D02*
X0017894Y0024106D01*
X0027894Y0024106D02*
X0027894Y0018106D01*
X0037894Y0018106D02*
X0037894Y0024106D01*
X0050394Y0024106D02*
X0050394Y0018106D01*
X0060394Y0018106D02*
X0060394Y0024106D01*
X0070394Y0024106D02*
X0070394Y0018106D01*
X0080394Y0018106D02*
X0080394Y0024106D01*
D20*
X0072894Y0046106D03*
X0051644Y0056106D03*
X0042894Y0069856D03*
X0025394Y0049856D03*
X0015394Y0049856D03*
X0005394Y0049856D03*
X0011644Y0077356D03*
X0050394Y0033606D03*
X0041644Y0032356D03*
X0077894Y0078606D03*
M02*
